<?xml version="1.0" encoding="UTF-8" standalone="no"?>
<!DOCTYPE svg PUBLIC "-//W3C//DTD SVG 1.1//EN"
 "http://www.w3.org/Graphics/SVG/1.1/DTD/svg11.dtd">
<!-- Generated by graphviz version 2.38.0 (20140413.2041)
 -->
<!-- Title: G Pages: 1 -->
<svg width="1660pt" height="1295pt"
 viewBox="0.00 0.00 1660.00 1295.00" xmlns="http://www.w3.org/2000/svg" xmlns:xlink="http://www.w3.org/1999/xlink">
<g id="graph0" class="graph" transform="scale(1 1) rotate(0) translate(4 1291)">
<title>G</title>
<polygon fill="white" stroke="none" points="-4,4 -4,-1291 1656,-1291 1656,4 -4,4"/>
<text text-anchor="middle" x="826" y="-7.8" font-family="Microsoft Yahei" font-size="14.00">skynet socket server</text>
<g id="clust1" class="cluster"><title>cluster_ss</title>
<polygon fill="lightgrey" stroke="lightgrey" points="8,-565 8,-1169 316,-1169 316,-565 8,-565"/>
<text text-anchor="middle" x="162" y="-1153.8" font-family="Microsoft Yahei" font-size="14.00">SOCKET_SERVER</text>
</g>
<g id="clust3" class="cluster"><title>cluster_ev</title>
<polygon fill="lightgrey" stroke="lightgrey" points="436,-949 436,-1279 559,-1279 559,-949 436,-949"/>
<text text-anchor="middle" x="497.5" y="-1263.8" font-family="Microsoft Yahei" font-size="14.00">ev[64]</text>
</g>
<g id="clust5" class="cluster"><title>cluster_slot</title>
<polygon fill="lightgrey" stroke="lightgrey" points="337,-151 337,-941 658,-941 658,-151 337,-151"/>
<text text-anchor="middle" x="497.5" y="-925.8" font-family="Microsoft Yahei" font-size="14.00">slot[65536]</text>
</g>
<g id="clust7" class="cluster"><title>cluster_wb</title>
<polygon fill="lightgrey" stroke="lightgrey" points="679,-261 679,-426 765,-426 765,-261 679,-261"/>
<text text-anchor="middle" x="722" y="-410.8" font-family="Microsoft Yahei" font-size="14.00">wb</text>
</g>
<g id="clust9" class="cluster"><title>cluster_hwblink</title>
<polygon fill="lightgrey" stroke="lightgrey" points="922.5,-330 922.5,-621 1023.5,-621 1023.5,-330 922.5,-330"/>
<text text-anchor="middle" x="973" y="-605.8" font-family="Microsoft Yahei" font-size="14.00">high wb link</text>
</g>
<g id="clust10" class="cluster"><title>cluster_lwblink</title>
<polygon fill="lightgrey" stroke="lightgrey" points="926.5,-31 926.5,-322 1020.5,-322 1020.5,-31 926.5,-31"/>
<text text-anchor="middle" x="973.5" y="-306.8" font-family="Microsoft Yahei" font-size="14.00">low wb link</text>
</g>
<!-- SS -->
<g id="node1" class="node"><title>SS</title>
<polygon fill="lightgrey" stroke="black" points="234.5,-733 89.5,-733 89.5,-573 234.5,-573 234.5,-733"/>
<polygon fill="gold" stroke="none" points="97.5,-577 97.5,-729 226.5,-729 226.5,-577 97.5,-577"/>
<polygon fill="none" stroke="black" points="100,-579 100,-727 132,-727 132,-579 100,-579"/>
<text text-anchor="start" x="104" y="-649.3" font-family="Microsoft Yahei" font-size="14.00">*SS</text>
<polygon fill="none" stroke="black" points="134,-704 134,-727 225,-727 225,-704 134,-704"/>
<text text-anchor="start" x="138" y="-711.8" font-family="Microsoft Yahei" font-size="14.00">event_fd</text>
<polygon fill="none" stroke="black" points="134,-679 134,-702 225,-702 225,-679 134,-679"/>
<text text-anchor="start" x="138" y="-686.8" font-family="Microsoft Yahei" font-size="14.00">rfds</text>
<polygon fill="none" stroke="black" points="134,-654 134,-677 225,-677 225,-654 134,-654"/>
<text text-anchor="start" x="138" y="-661.8" font-family="Microsoft Yahei" font-size="14.00">ev[64]</text>
<polygon fill="none" stroke="black" points="134,-629 134,-652 225,-652 225,-629 134,-629"/>
<text text-anchor="start" x="138" y="-636.8" font-family="Microsoft Yahei" font-size="14.00">event_n</text>
<polygon fill="none" stroke="black" points="134,-604 134,-627 225,-627 225,-604 134,-604"/>
<text text-anchor="start" x="138" y="-611.8" font-family="Microsoft Yahei" font-size="14.00">event_index</text>
<polygon fill="none" stroke="black" points="134,-579 134,-602 225,-602 225,-579 134,-579"/>
<text text-anchor="start" x="138" y="-586.8" font-family="Microsoft Yahei" font-size="14.00">slot[65536]</text>
</g>
<!-- socket_server -->
<g id="node2" class="node"><title>socket_server</title>
<path fill="cornflowerblue" stroke="cornflowerblue" d="M28,-769C28,-769 296,-769 296,-769 302,-769 308,-775 308,-781 308,-781 308,-1125 308,-1125 308,-1131 302,-1137 296,-1137 296,-1137 28,-1137 28,-1137 22,-1137 16,-1131 16,-1125 16,-1125 16,-781 16,-781 16,-775 22,-769 28,-769"/>
<text text-anchor="start" x="24" y="-1121.8" font-family="Microsoft Yahei" font-size="14.00">struct socket_server {</text>
<polyline fill="none" stroke="cornflowerblue" points="16,-1114 308,-1114 "/>
<text text-anchor="start" x="24" y="-1098.8" font-family="Microsoft Yahei" font-size="14.00">volatile uint64_t time;</text>
<polyline fill="none" stroke="cornflowerblue" points="16,-1091 308,-1091 "/>
<text text-anchor="start" x="24" y="-1075.8" font-family="Microsoft Yahei" font-size="14.00">int recvctrl_fd;</text>
<polyline fill="none" stroke="cornflowerblue" points="16,-1068 308,-1068 "/>
<text text-anchor="start" x="24" y="-1052.8" font-family="Microsoft Yahei" font-size="14.00">int sendctrl_fd;</text>
<polyline fill="none" stroke="cornflowerblue" points="16,-1045 308,-1045 "/>
<text text-anchor="start" x="24" y="-1029.8" font-family="Microsoft Yahei" font-size="14.00">int checkctrl;</text>
<polyline fill="none" stroke="cornflowerblue" points="16,-1022 308,-1022 "/>
<text text-anchor="start" x="24" y="-1006.8" font-family="Microsoft Yahei" font-size="14.00">poll_fd event_fd;</text>
<polyline fill="none" stroke="cornflowerblue" points="16,-999 308,-999 "/>
<text text-anchor="start" x="24" y="-983.8" font-family="Microsoft Yahei" font-size="14.00">int alloc_id;</text>
<polyline fill="none" stroke="cornflowerblue" points="16,-976 308,-976 "/>
<text text-anchor="start" x="24" y="-960.8" font-family="Microsoft Yahei" font-size="14.00">int event_n;</text>
<polyline fill="none" stroke="cornflowerblue" points="16,-953 308,-953 "/>
<text text-anchor="start" x="24" y="-937.8" font-family="Microsoft Yahei" font-size="14.00">int event_index;</text>
<polyline fill="none" stroke="cornflowerblue" points="16,-930 308,-930 "/>
<text text-anchor="start" x="24" y="-914.8" font-family="Microsoft Yahei" font-size="14.00">struct socket_object_interface soi;</text>
<polyline fill="none" stroke="cornflowerblue" points="16,-907 308,-907 "/>
<text text-anchor="start" x="24" y="-891.8" font-family="Microsoft Yahei" font-size="14.00">struct event ev[MAX_EVENT];</text>
<polyline fill="none" stroke="cornflowerblue" points="16,-884 308,-884 "/>
<text text-anchor="start" x="24" y="-868.8" font-family="Microsoft Yahei" font-size="14.00">struct socket slot[MAX_SOCKET];</text>
<polyline fill="none" stroke="cornflowerblue" points="16,-861 308,-861 "/>
<text text-anchor="start" x="24" y="-845.8" font-family="Microsoft Yahei" font-size="14.00">char buffer[MAX_INFO];</text>
<polyline fill="none" stroke="cornflowerblue" points="16,-838 308,-838 "/>
<text text-anchor="start" x="24" y="-822.8" font-family="Microsoft Yahei" font-size="14.00">uint8_t udpbuffer[MAX_UDP_PACKAGE];</text>
<polyline fill="none" stroke="cornflowerblue" points="16,-815 308,-815 "/>
<text text-anchor="start" x="24" y="-799.8" font-family="Microsoft Yahei" font-size="14.00">fd_set rfds;</text>
<polyline fill="none" stroke="cornflowerblue" points="16,-792 308,-792 "/>
<text text-anchor="start" x="24" y="-776.8" font-family="Microsoft Yahei" font-size="14.00">}</text>
</g>
<!-- SS&#45;&gt;socket_server -->
<g id="edge1" class="edge"><title>SS&#45;&gt;socket_server</title>
<path fill="none" stroke="red" d="M162,-733.273C162,-745.147 162,-757.02 162,-768.893"/>
</g>
<!-- node_ev -->
<g id="node3" class="node"><title>node_ev</title>
<polygon fill="none" stroke="black" points="464.5,-958 464.5,-1050 530.5,-1050 530.5,-958 464.5,-958"/>
<text text-anchor="middle" x="497.5" y="-1034.8" font-family="Microsoft Yahei" font-size="14.00">ev[0]</text>
<polyline fill="none" stroke="black" points="464.5,-1027 530.5,-1027 "/>
<text text-anchor="middle" x="497.5" y="-1011.8" font-family="Microsoft Yahei" font-size="14.00">ev[1]</text>
<polyline fill="none" stroke="black" points="464.5,-1004 530.5,-1004 "/>
<text text-anchor="middle" x="497.5" y="-988.8" font-family="Microsoft Yahei" font-size="14.00">...</text>
<polyline fill="none" stroke="black" points="464.5,-981 530.5,-981 "/>
<text text-anchor="middle" x="497.5" y="-965.8" font-family="Microsoft Yahei" font-size="14.00">ev[255]</text>
</g>
<!-- SS&#45;&gt;node_ev -->
<g id="edge10" class="edge"><title>SS:ev&#45;&gt;node_ev</title>
<path fill="none" stroke="black" d="M226,-666C283.839,-666 291.451,-707.629 316,-760 351.123,-834.927 285.954,-879.87 337,-945 365.135,-980.897 417.392,-994.955 454.416,-1000.46"/>
<polygon fill="black" stroke="black" points="454.046,-1003.94 464.422,-1001.8 454.973,-997.003 454.046,-1003.94"/>
</g>
<!-- node_slot -->
<g id="node5" class="node"><title>node_slot</title>
<polygon fill="none" stroke="black" points="422,-159.5 422,-366.5 573,-366.5 573,-159.5 422,-159.5"/>
<text text-anchor="middle" x="451.5" y="-293.8" font-family="Microsoft Yahei" font-size="14.00">slot[0]</text>
<polyline fill="none" stroke="black" points="481,-228.5 481,-366.5 "/>
<text text-anchor="middle" x="527" y="-351.3" font-family="Microsoft Yahei" font-size="14.00">high</text>
<polyline fill="none" stroke="black" points="481,-343.5 573,-343.5 "/>
<text text-anchor="middle" x="527" y="-328.3" font-family="Microsoft Yahei" font-size="14.00">low</text>
<polyline fill="none" stroke="black" points="481,-320.5 573,-320.5 "/>
<text text-anchor="middle" x="527" y="-305.3" font-family="Microsoft Yahei" font-size="14.00">*dw_buffer</text>
<polyline fill="none" stroke="black" points="481,-297.5 573,-297.5 "/>
<text text-anchor="middle" x="527" y="-282.3" font-family="Microsoft Yahei" font-size="14.00">dw_size</text>
<polyline fill="none" stroke="black" points="481,-274.5 573,-274.5 "/>
<text text-anchor="middle" x="527" y="-259.3" font-family="Microsoft Yahei" font-size="14.00">stat</text>
<polyline fill="none" stroke="black" points="481,-251.5 573,-251.5 "/>
<text text-anchor="middle" x="527" y="-236.3" font-family="Microsoft Yahei" font-size="14.00">...</text>
<polyline fill="none" stroke="black" points="422,-228.5 573,-228.5 "/>
<text text-anchor="middle" x="497.5" y="-213.3" font-family="Microsoft Yahei" font-size="14.00">slot[1]</text>
<polyline fill="none" stroke="black" points="422,-205.5 573,-205.5 "/>
<text text-anchor="middle" x="497.5" y="-190.3" font-family="Microsoft Yahei" font-size="14.00">...</text>
<polyline fill="none" stroke="black" points="422,-182.5 573,-182.5 "/>
<text text-anchor="middle" x="497.5" y="-167.3" font-family="Microsoft Yahei" font-size="14.00">slot[65535]</text>
</g>
<!-- SS&#45;&gt;node_slot -->
<g id="edge11" class="edge"><title>SS:slot&#45;&gt;node_slot</title>
<path fill="none" stroke="black" d="M226,-590C326.498,-590 272.255,-469.863 337,-393 359.213,-366.63 387.348,-341.665 413.782,-320.795"/>
<polygon fill="black" stroke="black" points="416.185,-323.359 421.923,-314.452 411.883,-317.837 416.185,-323.359"/>
</g>
<!-- struct_event -->
<g id="node4" class="node"><title>struct_event</title>
<path fill="cornflowerblue" stroke="cornflowerblue" d="M456,-1086.5C456,-1086.5 539,-1086.5 539,-1086.5 545,-1086.5 551,-1092.5 551,-1098.5 551,-1098.5 551,-1235.5 551,-1235.5 551,-1241.5 545,-1247.5 539,-1247.5 539,-1247.5 456,-1247.5 456,-1247.5 450,-1247.5 444,-1241.5 444,-1235.5 444,-1235.5 444,-1098.5 444,-1098.5 444,-1092.5 450,-1086.5 456,-1086.5"/>
<text text-anchor="start" x="452" y="-1232.3" font-family="Microsoft Yahei" font-size="14.00">struct event {</text>
<polyline fill="none" stroke="cornflowerblue" points="444,-1224.5 551,-1224.5 "/>
<text text-anchor="start" x="452" y="-1209.3" font-family="Microsoft Yahei" font-size="14.00">void * s;</text>
<polyline fill="none" stroke="cornflowerblue" points="444,-1201.5 551,-1201.5 "/>
<text text-anchor="start" x="452" y="-1186.3" font-family="Microsoft Yahei" font-size="14.00">bool read;</text>
<polyline fill="none" stroke="cornflowerblue" points="444,-1178.5 551,-1178.5 "/>
<text text-anchor="start" x="452" y="-1163.3" font-family="Microsoft Yahei" font-size="14.00">bool write;</text>
<polyline fill="none" stroke="cornflowerblue" points="444,-1155.5 551,-1155.5 "/>
<text text-anchor="start" x="452" y="-1140.3" font-family="Microsoft Yahei" font-size="14.00">bool error;</text>
<polyline fill="none" stroke="cornflowerblue" points="444,-1132.5 551,-1132.5 "/>
<text text-anchor="start" x="452" y="-1117.3" font-family="Microsoft Yahei" font-size="14.00">bool eof;</text>
<polyline fill="none" stroke="cornflowerblue" points="444,-1109.5 551,-1109.5 "/>
<text text-anchor="start" x="452" y="-1094.3" font-family="Microsoft Yahei" font-size="14.00">}</text>
</g>
<!-- node_ev&#45;&gt;struct_event -->
<g id="edge2" class="edge"><title>node_ev:f0:w&#45;&gt;struct_event</title>
<path fill="none" stroke="red" d="M447.737,-1076.65C440.975,-1055.52 442.424,-1039 463.5,-1039"/>
<polygon fill="red" stroke="red" points="444.536,-1078.09 451.241,-1086.29 451.115,-1075.7 444.536,-1078.09"/>
</g>
<!-- struct_socket -->
<g id="node6" class="node"><title>struct_socket</title>
<path fill="cornflowerblue" stroke="cornflowerblue" d="M357,-403C357,-403 638,-403 638,-403 644,-403 650,-409 650,-415 650,-415 650,-897 650,-897 650,-903 644,-909 638,-909 638,-909 357,-909 357,-909 351,-909 345,-903 345,-897 345,-897 345,-415 345,-415 345,-409 351,-403 357,-403"/>
<text text-anchor="start" x="353" y="-893.8" font-family="Microsoft Yahei" font-size="14.00">struct socket {</text>
<polyline fill="none" stroke="cornflowerblue" points="345,-886 650,-886 "/>
<text text-anchor="start" x="353" y="-870.8" font-family="Microsoft Yahei" font-size="14.00">uintptr_t opaque;</text>
<polyline fill="none" stroke="cornflowerblue" points="345,-863 650,-863 "/>
<text text-anchor="start" x="353" y="-847.8" font-family="Microsoft Yahei" font-size="14.00">struct wb_list high;</text>
<polyline fill="none" stroke="cornflowerblue" points="345,-840 650,-840 "/>
<text text-anchor="start" x="353" y="-824.8" font-family="Microsoft Yahei" font-size="14.00">struct wb_list low;</text>
<polyline fill="none" stroke="cornflowerblue" points="345,-817 650,-817 "/>
<text text-anchor="start" x="353" y="-801.8" font-family="Microsoft Yahei" font-size="14.00">int64_t wb_size;</text>
<polyline fill="none" stroke="cornflowerblue" points="345,-794 650,-794 "/>
<text text-anchor="start" x="353" y="-778.8" font-family="Microsoft Yahei" font-size="14.00">struct socket_stat stat;</text>
<polyline fill="none" stroke="cornflowerblue" points="345,-771 650,-771 "/>
<text text-anchor="start" x="353" y="-755.8" font-family="Microsoft Yahei" font-size="14.00">volatile uint32_t sending;</text>
<polyline fill="none" stroke="cornflowerblue" points="345,-748 650,-748 "/>
<text text-anchor="start" x="353" y="-732.8" font-family="Microsoft Yahei" font-size="14.00">int fd;</text>
<polyline fill="none" stroke="cornflowerblue" points="345,-725 650,-725 "/>
<text text-anchor="start" x="353" y="-709.8" font-family="Microsoft Yahei" font-size="14.00">int id;</text>
<polyline fill="none" stroke="cornflowerblue" points="345,-702 650,-702 "/>
<text text-anchor="start" x="353" y="-686.8" font-family="Microsoft Yahei" font-size="14.00">uint8_t protocol;</text>
<polyline fill="none" stroke="cornflowerblue" points="345,-679 650,-679 "/>
<text text-anchor="start" x="353" y="-663.8" font-family="Microsoft Yahei" font-size="14.00">uint8_t type;</text>
<polyline fill="none" stroke="cornflowerblue" points="345,-656 650,-656 "/>
<text text-anchor="start" x="353" y="-640.8" font-family="Microsoft Yahei" font-size="14.00">uint16_t udpconnecting;</text>
<polyline fill="none" stroke="cornflowerblue" points="345,-633 650,-633 "/>
<text text-anchor="start" x="353" y="-617.8" font-family="Microsoft Yahei" font-size="14.00">int64_t warn_size;</text>
<polyline fill="none" stroke="cornflowerblue" points="345,-610 650,-610 "/>
<text text-anchor="start" x="353" y="-594.8" font-family="Microsoft Yahei" font-size="14.00">union {</text>
<polyline fill="none" stroke="cornflowerblue" points="345,-587 650,-587 "/>
<text text-anchor="start" x="353" y="-571.8" font-family="Microsoft Yahei" font-size="14.00">int size;</text>
<polyline fill="none" stroke="cornflowerblue" points="345,-564 650,-564 "/>
<text text-anchor="start" x="353" y="-548.8" font-family="Microsoft Yahei" font-size="14.00">uint8_t udp_address[UDP_ADDRESS_SIZE];</text>
<polyline fill="none" stroke="cornflowerblue" points="345,-541 650,-541 "/>
<text text-anchor="start" x="353" y="-525.8" font-family="Microsoft Yahei" font-size="14.00">} p;</text>
<polyline fill="none" stroke="cornflowerblue" points="345,-518 650,-518 "/>
<text text-anchor="start" x="353" y="-502.8" font-family="Microsoft Yahei" font-size="14.00">struct spinlock dw_lock;</text>
<polyline fill="none" stroke="cornflowerblue" points="345,-495 650,-495 "/>
<text text-anchor="start" x="353" y="-479.8" font-family="Microsoft Yahei" font-size="14.00">int dw_offset;</text>
<polyline fill="none" stroke="cornflowerblue" points="345,-472 650,-472 "/>
<text text-anchor="start" x="353" y="-456.8" font-family="Microsoft Yahei" font-size="14.00">const void * dw_buffer;</text>
<polyline fill="none" stroke="cornflowerblue" points="345,-449 650,-449 "/>
<text text-anchor="start" x="353" y="-433.8" font-family="Microsoft Yahei" font-size="14.00">size_t dw_size;</text>
<polyline fill="none" stroke="cornflowerblue" points="345,-426 650,-426 "/>
<text text-anchor="start" x="353" y="-410.8" font-family="Microsoft Yahei" font-size="14.00">}</text>
</g>
<!-- node_slot&#45;&gt;struct_socket -->
<g id="edge3" class="edge"><title>node_slot:f0:nw&#45;&gt;struct_socket</title>
<path fill="none" stroke="red" d="M402.71,-393.632C407.158,-384.117 413.326,-375.174 421.5,-367"/>
<polygon fill="red" stroke="red" points="399.457,-392.341 398.963,-402.924 405.949,-394.959 399.457,-392.341"/>
</g>
<!-- high_wb -->
<g id="node8" class="node"><title>high_wb</title>
<polygon fill="lightgrey" stroke="black" points="757,-395 687,-395 687,-341 757,-341 757,-395"/>
<polygon fill="none" stroke="black" points="695,-368 695,-391 749,-391 749,-368 695,-368"/>
<text text-anchor="start" x="699" y="-375.8" font-family="Microsoft Yahei" font-size="14.00">* head</text>
<polygon fill="none" stroke="black" points="695,-345 695,-368 749,-368 749,-345 695,-345"/>
<text text-anchor="start" x="699" y="-352.8" font-family="Microsoft Yahei" font-size="14.00">* tail</text>
</g>
<!-- node_slot&#45;&gt;high_wb -->
<g id="edge12" class="edge"><title>node_slot:f_high&#45;&gt;high_wb</title>
<path fill="none" stroke="black" d="M574.5,-355C608.839,-355 647.529,-358.588 676.523,-361.994"/>
<polygon fill="black" stroke="black" points="676.391,-365.503 686.739,-363.233 677.234,-358.554 676.391,-365.503"/>
</g>
<!-- low_wb -->
<g id="node9" class="node"><title>low_wb</title>
<polygon fill="lightgrey" stroke="black" points="757,-323 687,-323 687,-269 757,-269 757,-323"/>
<polygon fill="none" stroke="black" points="695,-296 695,-319 749,-319 749,-296 695,-296"/>
<text text-anchor="start" x="699" y="-303.8" font-family="Microsoft Yahei" font-size="14.00">* head</text>
<polygon fill="none" stroke="black" points="695,-273 695,-296 749,-296 749,-273 695,-273"/>
<text text-anchor="start" x="699" y="-280.8" font-family="Microsoft Yahei" font-size="14.00">* tail</text>
</g>
<!-- node_slot&#45;&gt;low_wb -->
<g id="edge13" class="edge"><title>node_slot:f_low&#45;&gt;low_wb</title>
<path fill="none" stroke="black" d="M574.5,-332C609.76,-332 648.45,-322.044 677.211,-312.603"/>
<polygon fill="black" stroke="black" points="678.601,-315.828 686.948,-309.303 676.354,-309.198 678.601,-315.828"/>
</g>
<!-- struct_wb_list -->
<g id="node7" class="node"><title>struct_wb_list</title>
<path fill="cornflowerblue" stroke="cornflowerblue" d="M886.5,-630C886.5,-630 1059.5,-630 1059.5,-630 1065.5,-630 1071.5,-636 1071.5,-642 1071.5,-642 1071.5,-710 1071.5,-710 1071.5,-716 1065.5,-722 1059.5,-722 1059.5,-722 886.5,-722 886.5,-722 880.5,-722 874.5,-716 874.5,-710 874.5,-710 874.5,-642 874.5,-642 874.5,-636 880.5,-630 886.5,-630"/>
<text text-anchor="start" x="882.5" y="-706.8" font-family="Microsoft Yahei" font-size="14.00">struct wb_list {</text>
<polyline fill="none" stroke="cornflowerblue" points="874.5,-699 1071.5,-699 "/>
<text text-anchor="start" x="882.5" y="-683.8" font-family="Microsoft Yahei" font-size="14.00">struct write_buffer * head;</text>
<polyline fill="none" stroke="cornflowerblue" points="874.5,-676 1071.5,-676 "/>
<text text-anchor="start" x="882.5" y="-660.8" font-family="Microsoft Yahei" font-size="14.00">struct write_buffer * tail;</text>
<polyline fill="none" stroke="cornflowerblue" points="874.5,-653 1071.5,-653 "/>
<text text-anchor="start" x="882.5" y="-637.8" font-family="Microsoft Yahei" font-size="14.00">}</text>
</g>
<!-- high_wb&#45;&gt;struct_wb_list -->
<g id="edge14" class="edge"><title>high_wb&#45;&gt;struct_wb_list</title>
<path fill="none" stroke="red" d="M722.358,-395.097C722.658,-447.098 730.966,-561.364 794,-625 812.957,-644.138 838.574,-656.211 864.462,-663.794"/>
<polygon fill="red" stroke="red" points="863.815,-667.245 874.383,-666.486 865.648,-660.49 863.815,-667.245"/>
</g>
<!-- hhead -->
<g id="node11" class="node"><title>hhead</title>
<polygon fill="none" stroke="black" points="1006.5,-590 939.5,-590 939.5,-554 1006.5,-554 1006.5,-590"/>
<text text-anchor="middle" x="973" y="-568.3" font-family="Microsoft Yahei" font-size="14.00">buffer0</text>
</g>
<!-- high_wb&#45;&gt;hhead -->
<g id="edge15" class="edge"><title>high_wb:head&#45;&gt;hhead:w</title>
<path fill="none" stroke="cyan" d="M722,-392C722,-513.547 808.126,-568.938 927.826,-571.876"/>
<polygon fill="cyan" stroke="cyan" points="927.958,-575.378 938,-572 928.043,-568.379 927.958,-575.378"/>
</g>
<!-- hnoden -->
<g id="node14" class="node"><title>hnoden</title>
<polygon fill="none" stroke="black" points="1006.5,-374 939.5,-374 939.5,-338 1006.5,-338 1006.5,-374"/>
<text text-anchor="middle" x="973" y="-352.3" font-family="Microsoft Yahei" font-size="14.00">buffer3</text>
</g>
<!-- high_wb&#45;&gt;hnoden -->
<g id="edge16" class="edge"><title>high_wb:tail&#45;&gt;hnoden:w</title>
<path fill="none" stroke="cyan" d="M750,-356C829.965,-356 852.534,-356 927.566,-356"/>
<polygon fill="cyan" stroke="cyan" points="928,-359.5 938,-356 928,-352.5 928,-359.5"/>
</g>
<!-- lhead -->
<g id="node15" class="node"><title>lhead</title>
<polygon fill="none" stroke="skyblue" points="1006.5,-291 939.5,-291 939.5,-255 1006.5,-255 1006.5,-291"/>
<text text-anchor="middle" x="973" y="-269.3" font-family="Microsoft Yahei" font-size="14.00">buffer0</text>
</g>
<!-- low_wb&#45;&gt;lhead -->
<g id="edge17" class="edge"><title>low_wb:head&#45;&gt;lhead:w</title>
<path fill="none" stroke="purple" d="M750,-308C831.505,-308 851.418,-275.812 927.871,-273.172"/>
<polygon fill="purple" stroke="purple" points="928.061,-276.669 938,-273 927.942,-269.67 928.061,-276.669"/>
</g>
<!-- lnoden -->
<g id="node18" class="node"><title>lnoden</title>
<polygon fill="none" stroke="skyblue" points="1006.5,-75 939.5,-75 939.5,-39 1006.5,-39 1006.5,-75"/>
<text text-anchor="middle" x="973" y="-53.3" font-family="Microsoft Yahei" font-size="14.00">buffer3</text>
</g>
<!-- low_wb&#45;&gt;lnoden -->
<g id="edge18" class="edge"><title>low_wb:tail&#45;&gt;lnoden:w</title>
<path fill="none" stroke="purple" d="M722,-272C722,-139.989 798.511,-61.0757 927.789,-57.1535"/>
<polygon fill="purple" stroke="purple" points="928.054,-60.65 938,-57 927.948,-53.6508 928.054,-60.65"/>
</g>
<!-- struct_write_buffer -->
<g id="node10" class="node"><title>struct_write_buffer</title>
<path fill="cornflowerblue" stroke="cornflowerblue" d="M1359,-363C1359,-363 1640,-363 1640,-363 1646,-363 1652,-369 1652,-375 1652,-375 1652,-535 1652,-535 1652,-541 1646,-547 1640,-547 1640,-547 1359,-547 1359,-547 1353,-547 1347,-541 1347,-535 1347,-535 1347,-375 1347,-375 1347,-369 1353,-363 1359,-363"/>
<text text-anchor="start" x="1355" y="-531.8" font-family="Microsoft Yahei" font-size="14.00">struct write_buffer {</text>
<polyline fill="none" stroke="cornflowerblue" points="1347,-524 1652,-524 "/>
<text text-anchor="start" x="1355" y="-508.8" font-family="Microsoft Yahei" font-size="14.00">struct write_buffer * next;</text>
<polyline fill="none" stroke="cornflowerblue" points="1347,-501 1652,-501 "/>
<text text-anchor="start" x="1355" y="-485.8" font-family="Microsoft Yahei" font-size="14.00">const void *buffer;</text>
<polyline fill="none" stroke="cornflowerblue" points="1347,-478 1652,-478 "/>
<text text-anchor="start" x="1355" y="-462.8" font-family="Microsoft Yahei" font-size="14.00">char *ptr;</text>
<polyline fill="none" stroke="cornflowerblue" points="1347,-455 1652,-455 "/>
<text text-anchor="start" x="1355" y="-439.8" font-family="Microsoft Yahei" font-size="14.00">size_t sz;</text>
<polyline fill="none" stroke="cornflowerblue" points="1347,-432 1652,-432 "/>
<text text-anchor="start" x="1355" y="-416.8" font-family="Microsoft Yahei" font-size="14.00">bool userobject;</text>
<polyline fill="none" stroke="cornflowerblue" points="1347,-409 1652,-409 "/>
<text text-anchor="start" x="1355" y="-393.8" font-family="Microsoft Yahei" font-size="14.00">uint8_t udp_address[UDP_ADDRESS_SIZE];</text>
<polyline fill="none" stroke="cornflowerblue" points="1347,-386 1652,-386 "/>
<text text-anchor="start" x="1355" y="-370.8" font-family="Microsoft Yahei" font-size="14.00">}</text>
</g>
<!-- hhead&#45;&gt;struct_write_buffer -->
<g id="edge19" class="edge"><title>hhead:node0&#45;&gt;struct_write_buffer</title>
<path fill="none" stroke="red" d="M1006.81,-564.681C1071.65,-550.217 1220.05,-517.114 1336.96,-491.034"/>
<polygon fill="red" stroke="red" points="1337.75,-494.445 1346.74,-488.852 1336.22,-487.613 1337.75,-494.445"/>
<text text-anchor="middle" x="1249.5" y="-530.8" font-family="Microsoft Yahei" font-size="14.00">write_buffer 结构体定义</text>
</g>
<!-- hnode1 -->
<g id="node12" class="node"><title>hnode1</title>
<polygon fill="none" stroke="black" points="1006.5,-518 939.5,-518 939.5,-482 1006.5,-482 1006.5,-518"/>
<text text-anchor="middle" x="973" y="-496.3" font-family="Microsoft Yahei" font-size="14.00">buffer1</text>
</g>
<!-- hhead&#45;&gt;hnode1 -->
<g id="edge4" class="edge"><title>hhead&#45;&gt;hnode1</title>
<path fill="none" stroke="black" d="M973,-553.954C973,-545.407 973,-536.861 973,-528.314"/>
<polygon fill="black" stroke="black" points="976.5,-528.281 973,-518.281 969.5,-528.281 976.5,-528.281"/>
</g>
<!-- hnode2 -->
<g id="node13" class="node"><title>hnode2</title>
<polygon fill="none" stroke="black" points="1006.5,-446 939.5,-446 939.5,-410 1006.5,-410 1006.5,-446"/>
<text text-anchor="middle" x="973" y="-424.3" font-family="Microsoft Yahei" font-size="14.00">buffer2</text>
</g>
<!-- hnode1&#45;&gt;hnode2 -->
<g id="edge5" class="edge"><title>hnode1&#45;&gt;hnode2</title>
<path fill="none" stroke="black" d="M973,-481.954C973,-473.407 973,-464.861 973,-456.314"/>
<polygon fill="black" stroke="black" points="976.5,-456.281 973,-446.281 969.5,-456.281 976.5,-456.281"/>
</g>
<!-- hnode2&#45;&gt;hnoden -->
<g id="edge6" class="edge"><title>hnode2&#45;&gt;hnoden</title>
<path fill="none" stroke="black" d="M973,-409.954C973,-401.407 973,-392.861 973,-384.314"/>
<polygon fill="black" stroke="black" points="976.5,-384.281 973,-374.281 969.5,-384.281 976.5,-384.281"/>
</g>
<!-- lhead&#45;&gt;struct_write_buffer -->
<g id="edge20" class="edge"><title>lhead:node0&#45;&gt;struct_write_buffer</title>
<path fill="none" stroke="red" d="M1006.69,-282.022C1042.55,-292.085 1101.7,-309.169 1152,-326 1212.83,-346.355 1278.98,-370.477 1337.01,-392.322"/>
<polygon fill="red" stroke="red" points="1336.03,-395.695 1346.63,-395.949 1338.5,-389.145 1336.03,-395.695"/>
</g>
<!-- lnode1 -->
<g id="node16" class="node"><title>lnode1</title>
<polygon fill="none" stroke="skyblue" points="1006.5,-219 939.5,-219 939.5,-183 1006.5,-183 1006.5,-219"/>
<text text-anchor="middle" x="973" y="-197.3" font-family="Microsoft Yahei" font-size="14.00">buffer1</text>
</g>
<!-- lhead&#45;&gt;lnode1 -->
<g id="edge7" class="edge"><title>lhead&#45;&gt;lnode1</title>
<path fill="none" stroke="green" d="M973,-254.954C973,-246.407 973,-237.861 973,-229.314"/>
<polygon fill="green" stroke="green" points="976.5,-229.281 973,-219.281 969.5,-229.281 976.5,-229.281"/>
</g>
<!-- lnode2 -->
<g id="node17" class="node"><title>lnode2</title>
<polygon fill="none" stroke="skyblue" points="1006.5,-147 939.5,-147 939.5,-111 1006.5,-111 1006.5,-147"/>
<text text-anchor="middle" x="973" y="-125.3" font-family="Microsoft Yahei" font-size="14.00">buffer2</text>
</g>
<!-- lnode1&#45;&gt;lnode2 -->
<g id="edge8" class="edge"><title>lnode1&#45;&gt;lnode2</title>
<path fill="none" stroke="green" d="M973,-182.954C973,-174.407 973,-165.861 973,-157.314"/>
<polygon fill="green" stroke="green" points="976.5,-157.281 973,-147.281 969.5,-157.281 976.5,-157.281"/>
</g>
<!-- lnode2&#45;&gt;lnoden -->
<g id="edge9" class="edge"><title>lnode2&#45;&gt;lnoden</title>
<path fill="none" stroke="green" d="M973,-110.954C973,-102.407 973,-93.8607 973,-85.3142"/>
<polygon fill="green" stroke="green" points="976.5,-85.2812 973,-75.2813 969.5,-85.2813 976.5,-85.2812"/>
</g>
<!-- comment -->
<g id="node19" class="node"><title>comment</title>
<polygon fill="none" stroke="black" points="1146,-777 794,-777 794,-741 1152,-741 1152,-771 1146,-777"/>
<polyline fill="none" stroke="black" points="1146,-777 1146,-771 "/>
<polyline fill="none" stroke="black" points="1152,-771 1146,-771 "/>
<text text-anchor="start" x="802" y="-755.3" font-family="Microsoft Yahei" font-size="14.00" fill="red">红色箭头指向字段的数据类型（一般为结构体的定义）</text>
</g>
</g>
</svg>
