<?xml version="1.0" encoding="UTF-8" standalone="no"?>
<!DOCTYPE svg PUBLIC "-//W3C//DTD SVG 1.1//EN"
 "http://www.w3.org/Graphics/SVG/1.1/DTD/svg11.dtd">
<!-- Generated by graphviz version 2.38.0 (20140413.2041)
 -->
<!-- Title: G Pages: 1 -->
<svg width="1454pt" height="994pt"
 viewBox="0.00 0.00 1454.00 994.00" xmlns="http://www.w3.org/2000/svg" xmlns:xlink="http://www.w3.org/1999/xlink">
<g id="graph0" class="graph" transform="scale(1 1) rotate(0) translate(4 990)">
<title>G</title>
<polygon fill="white" stroke="none" points="-4,4 -4,-990 1450,-990 1450,4 -4,4"/>
<text text-anchor="middle" x="723" y="-7.8" font-family="Microsoft Yahei" font-size="14.00" fill="darkviolet">skynet 定时器</text>
<g id="clust3" class="cluster"><title>cluster_timer</title>
<polygon fill="#eedd82" stroke="#eedd82" points="8,-266 8,-513 222,-513 222,-266 8,-266"/>
<text text-anchor="middle" x="115" y="-497.8" font-family="Microsoft Yahei" font-size="14.00" fill="darkviolet">struct timer</text>
</g>
<g id="clust4" class="cluster"><title>cluster_linklist</title>
<polygon fill="#eedd82" stroke="#eedd82" points="967,-845 967,-978 1172,-978 1172,-845 967,-845"/>
<text text-anchor="middle" x="1069.5" y="-962.8" font-family="Microsoft Yahei" font-size="14.00" fill="darkviolet">struct link_list</text>
</g>
<g id="clust5" class="cluster"><title>cluster_timernode</title>
<polygon fill="#eedd82" stroke="#eedd82" points="1229,-732 1229,-865 1438,-865 1438,-732 1229,-732"/>
<text text-anchor="middle" x="1333.5" y="-849.8" font-family="Microsoft Yahei" font-size="14.00" fill="darkviolet">struct timer_node</text>
</g>
<g id="clust9" class="cluster"><title>cluster_t</title>
<polygon fill="lightgrey" stroke="lightgrey" points="802,-301 802,-434 882,-434 882,-301 802,-301"/>
<text text-anchor="middle" x="842" y="-418.8" font-family="Microsoft Yahei" font-size="14.00" fill="darkviolet">t[4][256]</text>
</g>
<g id="clust10" class="cluster"><title>cluster_t0</title>
<polygon fill="lightgrey" stroke="lightgrey" points="1002,-454 1002,-587 1138,-587 1138,-454 1002,-454"/>
<text text-anchor="middle" x="1070" y="-571.8" font-family="Microsoft Yahei" font-size="14.00" fill="darkviolet">t0 # link_list[64]</text>
</g>
<g id="clust11" class="cluster"><title>cluster_t1</title>
<polygon fill="lightgrey" stroke="lightgrey" points="1001,-313 1001,-446 1138,-446 1138,-313 1001,-313"/>
<text text-anchor="middle" x="1069.5" y="-430.8" font-family="Microsoft Yahei" font-size="14.00" fill="darkviolet">t1 # link_list[64]</text>
</g>
<g id="clust12" class="cluster"><title>cluster_t2</title>
<polygon fill="lightgrey" stroke="lightgrey" points="1001,-172 1001,-305 1138,-305 1138,-172 1001,-172"/>
<text text-anchor="middle" x="1069.5" y="-289.8" font-family="Microsoft Yahei" font-size="14.00" fill="darkviolet">t2 # link_list[64]</text>
</g>
<g id="clust13" class="cluster"><title>cluster_t3</title>
<polygon fill="lightgrey" stroke="lightgrey" points="1002,-31 1002,-164 1138,-164 1138,-31 1002,-31"/>
<text text-anchor="middle" x="1070" y="-148.8" font-family="Microsoft Yahei" font-size="14.00" fill="darkviolet">t3 # link_list[64]</text>
</g>
<g id="clust6" class="cluster"><title>cluster_near</title>
<polygon fill="lightgrey" stroke="lightgrey" points="774,-579 774,-734 910,-734 910,-579 774,-579"/>
<text text-anchor="middle" x="842" y="-718.8" font-family="Microsoft Yahei" font-size="14.00" fill="darkviolet">link_list[256]</text>
</g>
<g id="clust7" class="cluster"><title>cluster_link</title>
<polygon fill="lightgrey" stroke="lightgrey" points="995,-595 995,-837 1144,-837 1144,-595 995,-595"/>
<text text-anchor="middle" x="1069.5" y="-821.8" font-family="Microsoft Yahei" font-size="14.00" fill="darkviolet">link list</text>
</g>
<!-- TI -->
<g id="node1" class="node"><title>TI</title>
<ellipse fill="lightgrey" stroke="black" cx="498" cy="-378" rx="132.872" ry="120.417"/>
<polygon fill="gold" stroke="none" points="412,-297 412,-459 584,-459 584,-297 412,-297"/>
<polygon fill="none" stroke="black" points="412,-297 412,-459 445,-459 445,-297 412,-297"/>
<text text-anchor="start" x="418" y="-374.3" font-family="Microsoft Yahei" font-size="14.00">*TI</text>
<polygon fill="none" stroke="black" points="445,-432 445,-459 584,-459 584,-432 445,-432"/>
<text text-anchor="start" x="483" y="-441.8" font-family="Microsoft Yahei" font-size="14.00" fill="red">TI&#45;&gt;near</text>
<polygon fill="none" stroke="black" points="445,-405 445,-432 584,-432 584,-405 445,-405"/>
<text text-anchor="start" x="496" y="-414.8" font-family="Microsoft Yahei" font-size="14.00">TI&#45;&gt;t</text>
<polygon fill="none" stroke="black" points="445,-378 445,-405 584,-405 584,-378 445,-378"/>
<text text-anchor="start" x="482.5" y="-387.8" font-family="Microsoft Yahei" font-size="14.00">TI&#45;&gt;time</text>
<polygon fill="none" stroke="black" points="445,-351 445,-378 584,-378 584,-351 445,-351"/>
<text text-anchor="start" x="466" y="-360.8" font-family="Microsoft Yahei" font-size="14.00">TI&#45;&gt;starttime</text>
<polygon fill="none" stroke="black" points="445,-324 445,-351 584,-351 584,-324 445,-324"/>
<text text-anchor="start" x="473" y="-333.8" font-family="Microsoft Yahei" font-size="14.00">TI&#45;&gt;current</text>
<polygon fill="none" stroke="black" points="445,-297 445,-324 584,-324 584,-297 445,-297"/>
<text text-anchor="start" x="451" y="-306.8" font-family="Microsoft Yahei" font-size="14.00">TI&#45;&gt;current_point</text>
</g>
<!-- TI_Note -->
<g id="node2" class="node"><title>TI_Note</title>
<polygon fill="none" stroke="black" points="703,-663.5 287,-663.5 287,-516.5 709,-516.5 709,-657.5 703,-663.5"/>
<polyline fill="none" stroke="black" points="703,-663.5 703,-657.5 "/>
<polyline fill="none" stroke="black" points="709,-657.5 703,-657.5 "/>
<text text-anchor="start" x="295" y="-648.3" font-family="Microsoft Yahei" font-size="14.00">定时器有 4 个与时间相关的字段，需要注意：</text>
<text text-anchor="start" x="295" y="-617.3" font-family="Microsoft Yahei" font-size="14.00">starttime 表示定时器初始化时开始时间戳（秒） </text>
<text text-anchor="start" x="295" y="-586.3" font-family="Microsoft Yahei" font-size="14.00">current 表示从 starttime 开始，经过了多少厘秒（1/100 秒）</text>
<text text-anchor="start" x="295" y="-555.3" font-family="Microsoft Yahei" font-size="14.00">current_point 表示以厘秒为单位的当前时间戳 </text>
<text text-anchor="start" x="295" y="-524.3" font-family="Microsoft Yahei" font-size="14.00">time 表示时间轮转动次数 </text>
</g>
<!-- TI&#45;&gt;TI_Note -->
<!-- near -->
<g id="node6" class="node"><title>near</title>
<polygon fill="none" stroke="black" points="782,-587.5 782,-702.5 902,-702.5 902,-587.5 782,-587.5"/>
<text text-anchor="middle" x="816" y="-675.8" font-family="Microsoft Yahei" font-size="14.00">near[0]</text>
<polyline fill="none" stroke="black" points="850,-656.5 850,-702.5 "/>
<text text-anchor="middle" x="876" y="-687.3" font-family="Microsoft Yahei" font-size="14.00">head</text>
<polyline fill="none" stroke="black" points="850,-679.5 902,-679.5 "/>
<text text-anchor="middle" x="876" y="-664.3" font-family="Microsoft Yahei" font-size="14.00">*tail</text>
<polyline fill="none" stroke="black" points="782,-656.5 902,-656.5 "/>
<text text-anchor="middle" x="842" y="-641.3" font-family="Microsoft Yahei" font-size="14.00">near[1]</text>
<polyline fill="none" stroke="black" points="782,-633.5 902,-633.5 "/>
<text text-anchor="middle" x="842" y="-618.3" font-family="Microsoft Yahei" font-size="14.00">...</text>
<polyline fill="none" stroke="black" points="782,-610.5 902,-610.5 "/>
<text text-anchor="middle" x="842" y="-595.3" font-family="Microsoft Yahei" font-size="14.00">near[255]</text>
</g>
<!-- TI&#45;&gt;near -->
<g id="edge9" class="edge"><title>TI:near&#45;&gt;near</title>
<path fill="none" stroke="black" d="M585,-446C669.726,-446 743.315,-514.785 789.576,-571.475"/>
<polygon fill="black" stroke="black" points="786.934,-573.774 795.921,-579.385 792.394,-569.395 786.934,-573.774"/>
</g>
<!-- t -->
<g id="node11" class="node"><title>t</title>
<polygon fill="none" stroke="black" points="815,-310 815,-402 869,-402 869,-310 815,-310"/>
<text text-anchor="middle" x="842" y="-386.8" font-family="Microsoft Yahei" font-size="14.00">t[0]</text>
<polyline fill="none" stroke="black" points="815,-379 869,-379 "/>
<text text-anchor="middle" x="842" y="-363.8" font-family="Microsoft Yahei" font-size="14.00">t[1]</text>
<polyline fill="none" stroke="black" points="815,-356 869,-356 "/>
<text text-anchor="middle" x="842" y="-340.8" font-family="Microsoft Yahei" font-size="14.00">t[2]</text>
<polyline fill="none" stroke="black" points="815,-333 869,-333 "/>
<text text-anchor="middle" x="842" y="-317.8" font-family="Microsoft Yahei" font-size="14.00">t[3]</text>
</g>
<!-- TI&#45;&gt;t -->
<g id="edge12" class="edge"><title>TI:t:e&#45;&gt;t</title>
<path fill="none" stroke="black" d="M585,-419C659.052,-419 741.754,-393.837 792.594,-375.316"/>
<polygon fill="black" stroke="black" points="793.854,-378.582 802.016,-371.827 791.423,-372.018 793.854,-378.582"/>
</g>
<!-- timer -->
<g id="node3" class="node"><title>timer</title>
<path fill="none" stroke="cornflowerblue" d="M28,-274.5C28,-274.5 202,-274.5 202,-274.5 208,-274.5 214,-280.5 214,-286.5 214,-286.5 214,-469.5 214,-469.5 214,-475.5 208,-481.5 202,-481.5 202,-481.5 28,-481.5 28,-481.5 22,-481.5 16,-475.5 16,-469.5 16,-469.5 16,-286.5 16,-286.5 16,-280.5 22,-274.5 28,-274.5"/>
<text text-anchor="start" x="24" y="-466.3" font-family="Microsoft Yahei" font-size="14.00">struct timer {</text>
<polyline fill="none" stroke="cornflowerblue" points="16,-458.5 214,-458.5 "/>
<text text-anchor="start" x="24" y="-443.3" font-family="Microsoft Yahei" font-size="14.00">struct link_list near[256];</text>
<polyline fill="none" stroke="cornflowerblue" points="16,-435.5 214,-435.5 "/>
<text text-anchor="start" x="24" y="-420.3" font-family="Microsoft Yahei" font-size="14.00">struct link_list t[4][64];</text>
<polyline fill="none" stroke="cornflowerblue" points="16,-412.5 214,-412.5 "/>
<text text-anchor="start" x="24" y="-397.3" font-family="Microsoft Yahei" font-size="14.00">struct spinlock lock;</text>
<polyline fill="none" stroke="cornflowerblue" points="16,-389.5 214,-389.5 "/>
<text text-anchor="start" x="24" y="-374.3" font-family="Microsoft Yahei" font-size="14.00">uint32_t time;</text>
<polyline fill="none" stroke="cornflowerblue" points="16,-366.5 214,-366.5 "/>
<text text-anchor="start" x="24" y="-351.3" font-family="Microsoft Yahei" font-size="14.00">uint32_t starttime;</text>
<polyline fill="none" stroke="cornflowerblue" points="16,-343.5 214,-343.5 "/>
<text text-anchor="start" x="24" y="-328.3" font-family="Microsoft Yahei" font-size="14.00">uint64_t current;</text>
<polyline fill="none" stroke="cornflowerblue" points="16,-320.5 214,-320.5 "/>
<text text-anchor="start" x="24" y="-305.3" font-family="Microsoft Yahei" font-size="14.00">uint64_t current_point;</text>
<polyline fill="none" stroke="cornflowerblue" points="16,-297.5 214,-297.5 "/>
<text text-anchor="start" x="24" y="-282.3" font-family="Microsoft Yahei" font-size="14.00">}</text>
</g>
<!-- timer&#45;&gt;TI -->
<g id="edge5" class="edge"><title>timer&#45;&gt;TI:f0</title>
<path fill="none" stroke="red" stroke-dasharray="1,5" d="M224.58,-378C280.309,-378 349.286,-378 411,-378"/>
<polygon fill="red" stroke="red" points="222,-378 232,-373.5 227,-378 232,-378 232,-378 232,-378 227,-378 232,-382.5 222,-378 222,-378"/>
</g>
<!-- link_list -->
<g id="node4" class="node"><title>link_list</title>
<path fill="none" stroke="cornflowerblue" d="M987,-854C987,-854 1152,-854 1152,-854 1158,-854 1164,-860 1164,-866 1164,-866 1164,-934 1164,-934 1164,-940 1158,-946 1152,-946 1152,-946 987,-946 987,-946 981,-946 975,-940 975,-934 975,-934 975,-866 975,-866 975,-860 981,-854 987,-854"/>
<text text-anchor="start" x="983" y="-930.8" font-family="Microsoft Yahei" font-size="14.00">struct link_list {</text>
<polyline fill="none" stroke="cornflowerblue" points="975,-923 1164,-923 "/>
<text text-anchor="start" x="983" y="-907.8" font-family="Microsoft Yahei" font-size="14.00">struct timer_node head;</text>
<polyline fill="none" stroke="cornflowerblue" points="975,-900 1164,-900 "/>
<text text-anchor="start" x="983" y="-884.8" font-family="Microsoft Yahei" font-size="14.00">struct timer_node *tail;</text>
<polyline fill="none" stroke="cornflowerblue" points="975,-877 1164,-877 "/>
<text text-anchor="start" x="983" y="-861.8" font-family="Microsoft Yahei" font-size="14.00">}</text>
</g>
<!-- timer_node -->
<g id="node5" class="node"><title>timer_node</title>
<path fill="none" stroke="cornflowerblue" d="M1249,-741C1249,-741 1418,-741 1418,-741 1424,-741 1430,-747 1430,-753 1430,-753 1430,-821 1430,-821 1430,-827 1424,-833 1418,-833 1418,-833 1249,-833 1249,-833 1243,-833 1237,-827 1237,-821 1237,-821 1237,-753 1237,-753 1237,-747 1243,-741 1249,-741"/>
<text text-anchor="start" x="1245" y="-817.8" font-family="Microsoft Yahei" font-size="14.00">struct timer_node {</text>
<polyline fill="none" stroke="cornflowerblue" points="1237,-810 1430,-810 "/>
<text text-anchor="start" x="1245" y="-794.8" font-family="Microsoft Yahei" font-size="14.00">struct timer_node *next;</text>
<polyline fill="none" stroke="cornflowerblue" points="1237,-787 1430,-787 "/>
<text text-anchor="start" x="1245" y="-771.8" font-family="Microsoft Yahei" font-size="14.00">uint32_t expire;</text>
<polyline fill="none" stroke="cornflowerblue" points="1237,-764 1430,-764 "/>
<text text-anchor="start" x="1245" y="-748.8" font-family="Microsoft Yahei" font-size="14.00">}</text>
</g>
<!-- near&#45;&gt;link_list -->
<g id="edge6" class="edge"><title>near:f0&#45;&gt;link_list</title>
<path fill="none" stroke="red" stroke-dasharray="1,5" d="M816,-704C816,-783.797 895.664,-835.789 965.498,-866.036"/>
<polygon fill="red" stroke="red" points="956.67,-864.624 967,-866.979 960.393,-858.696 956.67,-864.624"/>
</g>
<!-- head -->
<g id="node7" class="node"><title>head</title>
<polygon fill="none" stroke="yellow" points="1004,-769 1004,-805 1135,-805 1135,-769 1004,-769"/>
<text text-anchor="middle" x="1041.5" y="-783.3" font-family="Microsoft Yahei" font-size="14.00">expire 0</text>
<polyline fill="none" stroke="yellow" points="1079,-769 1079,-805 "/>
<text text-anchor="middle" x="1107" y="-783.3" font-family="Microsoft Yahei" font-size="14.00">*next</text>
</g>
<!-- near&#45;&gt;head -->
<g id="edge10" class="edge"><title>near:head:e&#45;&gt;head</title>
<path fill="none" stroke="black" d="M903,-691C944.827,-691 931.156,-738.442 967,-760 978.172,-766.72 991.022,-771.792 1003.74,-775.613"/>
</g>
<!-- noden -->
<g id="node10" class="node"><title>noden</title>
<polygon fill="none" stroke="black" points="1003.5,-604 1003.5,-640 1135.5,-640 1135.5,-604 1003.5,-604"/>
<text text-anchor="middle" x="1041.5" y="-618.3" font-family="Microsoft Yahei" font-size="14.00">expire n</text>
<polyline fill="none" stroke="black" points="1079.5,-604 1079.5,-640 "/>
<text text-anchor="middle" x="1107.5" y="-618.3" font-family="Microsoft Yahei" font-size="14.00">*next</text>
</g>
<!-- near&#45;&gt;noden -->
<g id="edge11" class="edge"><title>near:tail:e&#45;&gt;noden</title>
<path fill="none" stroke="black" d="M903,-668C932.548,-668 938.536,-657.929 967,-650 975.6,-647.605 984.612,-645.104 993.567,-642.626"/>
<polygon fill="black" stroke="black" points="994.533,-645.99 1003.24,-639.951 992.667,-639.243 994.533,-645.99"/>
</g>
<!-- head&#45;&gt;timer_node -->
<g id="edge7" class="edge"><title>head&#45;&gt;timer_node</title>
<path fill="none" stroke="red" stroke-dasharray="1,5" d="M1135.26,-787C1162.77,-787 1195.55,-787 1226.42,-787"/>
<polygon fill="red" stroke="red" points="1219,-790.5 1229,-787 1219,-783.5 1219,-790.5"/>
</g>
<!-- node1 -->
<g id="node8" class="node"><title>node1</title>
<polygon fill="none" stroke="black" points="1003,-714 1003,-750 1136,-750 1136,-714 1003,-714"/>
<text text-anchor="middle" x="1041.5" y="-728.3" font-family="Microsoft Yahei" font-size="14.00">expire 1</text>
<polyline fill="none" stroke="black" points="1080,-714 1080,-750 "/>
<text text-anchor="middle" x="1108" y="-728.3" font-family="Microsoft Yahei" font-size="14.00">*next</text>
</g>
<!-- head&#45;&gt;node1 -->
<g id="edge2" class="edge"><title>head:next&#45;&gt;node1:node1</title>
<path fill="none" stroke="black" d="M1045.83,-759.948C1060.51,-769.314 1107.5,-742.846 1107.5,-768.5"/>
<polygon fill="black" stroke="black" points="1048.85,-758.132 1041.5,-750.5 1042.48,-761.049 1048.85,-758.132"/>
</g>
<!-- node2 -->
<g id="node9" class="node"><title>node2</title>
<polygon fill="none" stroke="black" points="1003.5,-659 1003.5,-695 1135.5,-695 1135.5,-659 1003.5,-659"/>
<text text-anchor="middle" x="1041.5" y="-673.3" font-family="Microsoft Yahei" font-size="14.00">expire 2</text>
<polyline fill="none" stroke="black" points="1079.5,-659 1079.5,-695 "/>
<text text-anchor="middle" x="1107.5" y="-673.3" font-family="Microsoft Yahei" font-size="14.00">*next</text>
</g>
<!-- node1&#45;&gt;node2 -->
<g id="edge3" class="edge"><title>node1:next&#45;&gt;node2:node2</title>
<path fill="none" stroke="black" d="M1045.49,-704.793C1059.91,-715.011 1108.5,-687.243 1108.5,-713.5"/>
<polygon fill="black" stroke="black" points="1048.66,-703.308 1041.5,-695.5 1042.23,-706.07 1048.66,-703.308"/>
</g>
<!-- node2&#45;&gt;noden -->
<g id="edge4" class="edge"><title>node2:next&#45;&gt;noden:noden</title>
<path fill="none" stroke="black" d="M1045.83,-649.948C1060.51,-659.314 1107.5,-632.846 1107.5,-658.5"/>
<polygon fill="black" stroke="black" points="1048.85,-648.132 1041.5,-640.5 1042.48,-651.049 1048.85,-648.132"/>
</g>
<!-- t0 -->
<g id="node12" class="node"><title>t0</title>
<polygon fill="none" stroke="black" points="1019,-463 1019,-555 1120,-555 1120,-463 1019,-463"/>
<text text-anchor="middle" x="1069.5" y="-539.8" font-family="Microsoft Yahei" font-size="14.00">link_list[0]</text>
<polyline fill="none" stroke="black" points="1019,-532 1120,-532 "/>
<text text-anchor="middle" x="1069.5" y="-516.8" font-family="Microsoft Yahei" font-size="14.00">link_list[1]</text>
<polyline fill="none" stroke="black" points="1019,-509 1120,-509 "/>
<text text-anchor="middle" x="1069.5" y="-493.8" font-family="Microsoft Yahei" font-size="14.00">...</text>
<polyline fill="none" stroke="black" points="1019,-486 1120,-486 "/>
<text text-anchor="middle" x="1069.5" y="-470.8" font-family="Microsoft Yahei" font-size="14.00">link_list[63]</text>
</g>
<!-- t&#45;&gt;t0 -->
<g id="edge13" class="edge"><title>t:f0&#45;&gt;t0</title>
<path fill="none" stroke="black" d="M870,-391C920.46,-391 923.63,-424.208 967,-450 975.487,-455.047 984.397,-460.297 993.265,-465.492"/>
<polygon fill="black" stroke="black" points="991.703,-468.633 1002.1,-470.659 995.237,-462.59 991.703,-468.633"/>
</g>
<!-- t1 -->
<g id="node13" class="node"><title>t1</title>
<polygon fill="none" stroke="black" points="1019,-322 1019,-414 1120,-414 1120,-322 1019,-322"/>
<text text-anchor="middle" x="1069.5" y="-398.8" font-family="Microsoft Yahei" font-size="14.00">link_list[0]</text>
<polyline fill="none" stroke="black" points="1019,-391 1120,-391 "/>
<text text-anchor="middle" x="1069.5" y="-375.8" font-family="Microsoft Yahei" font-size="14.00">link_list[1]</text>
<polyline fill="none" stroke="black" points="1019,-368 1120,-368 "/>
<text text-anchor="middle" x="1069.5" y="-352.8" font-family="Microsoft Yahei" font-size="14.00">...</text>
<polyline fill="none" stroke="black" points="1019,-345 1120,-345 "/>
<text text-anchor="middle" x="1069.5" y="-329.8" font-family="Microsoft Yahei" font-size="14.00">link_list[63]</text>
</g>
<!-- t&#45;&gt;t1 -->
<g id="edge14" class="edge"><title>t:f1&#45;&gt;t1</title>
<path fill="none" stroke="black" d="M870,-368C910.016,-368 954.57,-368 991.312,-368"/>
<polygon fill="black" stroke="black" points="991.458,-371.5 1001.46,-368 991.458,-364.5 991.458,-371.5"/>
</g>
<!-- t2 -->
<g id="node14" class="node"><title>t2</title>
<polygon fill="none" stroke="black" points="1019,-181 1019,-273 1120,-273 1120,-181 1019,-181"/>
<text text-anchor="middle" x="1069.5" y="-257.8" font-family="Microsoft Yahei" font-size="14.00">link_list[0]</text>
<polyline fill="none" stroke="black" points="1019,-250 1120,-250 "/>
<text text-anchor="middle" x="1069.5" y="-234.8" font-family="Microsoft Yahei" font-size="14.00">link_list[1]</text>
<polyline fill="none" stroke="black" points="1019,-227 1120,-227 "/>
<text text-anchor="middle" x="1069.5" y="-211.8" font-family="Microsoft Yahei" font-size="14.00">...</text>
<polyline fill="none" stroke="black" points="1019,-204 1120,-204 "/>
<text text-anchor="middle" x="1069.5" y="-188.8" font-family="Microsoft Yahei" font-size="14.00">link_list[63]</text>
</g>
<!-- t&#45;&gt;t2 -->
<g id="edge15" class="edge"><title>t:f2&#45;&gt;t2</title>
<path fill="none" stroke="black" d="M870,-344C896.506,-344 948.762,-312.647 993.006,-282.402"/>
<polygon fill="black" stroke="black" points="995.207,-285.136 1001.45,-276.577 991.232,-279.373 995.207,-285.136"/>
</g>
<!-- t3 -->
<g id="node15" class="node"><title>t3</title>
<polygon fill="none" stroke="black" points="1019,-40 1019,-132 1120,-132 1120,-40 1019,-40"/>
<text text-anchor="middle" x="1069.5" y="-116.8" font-family="Microsoft Yahei" font-size="14.00">link_list[0]</text>
<polyline fill="none" stroke="black" points="1019,-109 1120,-109 "/>
<text text-anchor="middle" x="1069.5" y="-93.8" font-family="Microsoft Yahei" font-size="14.00">link_list[1]</text>
<polyline fill="none" stroke="black" points="1019,-86 1120,-86 "/>
<text text-anchor="middle" x="1069.5" y="-70.8" font-family="Microsoft Yahei" font-size="14.00">...</text>
<polyline fill="none" stroke="black" points="1019,-63 1120,-63 "/>
<text text-anchor="middle" x="1069.5" y="-47.8" font-family="Microsoft Yahei" font-size="14.00">link_list[63]</text>
</g>
<!-- t&#45;&gt;t3 -->
<g id="edge16" class="edge"><title>t:f3&#45;&gt;t3</title>
<path fill="none" stroke="black" d="M870,-321C950.514,-321 913.418,-228.096 967,-168 975.354,-158.63 984.847,-149.475 994.595,-140.88"/>
<polygon fill="black" stroke="black" points="997.158,-143.292 1002.45,-134.113 992.589,-137.988 997.158,-143.292"/>
</g>
<!-- t0&#45;&gt;link_list -->
<g id="edge8" class="edge"><title>t0:f0:w&#45;&gt;link_list</title>
<path fill="none" stroke="red" stroke-dasharray="1,5" d="M1017.5,-544C979.536,-544 968.754,-565.459 953,-600 942.303,-623.454 940.648,-809.375 953,-832 955.235,-836.094 957.828,-839.963 960.709,-843.617"/>
<polygon fill="red" stroke="red" points="958.215,-846.081 967.449,-851.275 963.47,-841.456 958.215,-846.081"/>
</g>
</g>
</svg>
