<?xml version="1.0" encoding="UTF-8" standalone="no"?>
<!DOCTYPE svg PUBLIC "-//W3C//DTD SVG 1.1//EN"
 "http://www.w3.org/Graphics/SVG/1.1/DTD/svg11.dtd">
<!-- Generated by graphviz version 2.40.1 (20161225.0304)
 -->
<!-- Title: G Pages: 1 -->
<svg width="870pt" height="856pt"
 viewBox="0.00 0.00 870.00 856.00" xmlns="http://www.w3.org/2000/svg" xmlns:xlink="http://www.w3.org/1999/xlink">
<g id="graph0" class="graph" transform="scale(1 1) rotate(0) translate(4 852)">
<title>G</title>
<polygon fill="#ffffff" stroke="transparent" points="-4,4 -4,-852 866,-852 866,4 -4,4"/>
<text text-anchor="start" x="400.5" y="-41.8" font-family="Microsoft Yahei" font-size="14.00" fill="#000000">The </text>
<text text-anchor="start" x="431.5" y="-41.8" font-family="Microsoft Yahei" font-weight="bold" font-size="14.00" fill="#ff0000">foo</text>
<text text-anchor="start" x="457.5" y="-41.8" font-family="Microsoft Yahei" font-size="14.00" fill="#000000">,</text>
<text text-anchor="start" x="383.5" y="-23" font-family="Microsoft Yahei" font-size="14.00" fill="#000000"> the </text>
<text text-anchor="start" x="415.5" y="-23" font-family="Microsoft Yahei" font-size="20.00" fill="#000000">bar</text>
<text text-anchor="start" x="447.5" y="-23" font-family="Microsoft Yahei" font-size="14.00" fill="#000000"> and</text>
<text text-anchor="start" x="402.5" y="-7.8" font-family="Microsoft Yahei" font-size="14.00" fill="#000000"> the </text>
<text text-anchor="start" x="434.5" y="-7.8" font-family="Microsoft Yahei" font-style="italic" font-size="14.00" fill="#000000">baz</text>
<g id="clust1" class="cluster">
<title>cluster_handle</title>
<polygon fill="#ffd700" stroke="#ffd700" stroke-width="3" points="8,-334 8,-619 238,-619 238,-334 8,-334"/>
<text text-anchor="middle" x="123" y="-603.8" font-family="Microsoft Yahei" font-size="14.00" fill="#00ff00">handle_storage* H</text>
</g>
<g id="clust2" class="cluster">
<title>cluster_slots</title>
<polygon fill="#d3d3d3" stroke="#d3d3d3" points="258,-549 258,-681 350,-681 350,-549 258,-549"/>
<text text-anchor="middle" x="304" y="-665.8" font-family="Microsoft Yahei" font-size="14.00" fill="#000000">context list</text>
</g>
<g id="clust3" class="cluster">
<title>cluster_names</title>
<polygon fill="#d3d3d3" stroke="#d3d3d3" points="261,-228 261,-360 347,-360 347,-228 261,-228"/>
<text text-anchor="middle" x="304" y="-344.8" font-family="Microsoft Yahei" font-size="14.00" fill="#000000">names list</text>
</g>
<g id="clust4" class="cluster">
<title>cluster_name</title>
<polygon fill="#ffd700" stroke="#ffd700" points="408.5,-64 408.5,-196 586.5,-196 586.5,-64 408.5,-64"/>
<text text-anchor="middle" x="497.5" y="-180.8" font-family="Microsoft Yahei" font-size="14.00" fill="#000000">context name</text>
</g>
<g id="clust6" class="cluster">
<title>cluster_module</title>
<polygon fill="#ffd700" stroke="#ffd700" stroke-width="3" points="645,-617 645,-840 854,-840 854,-617 645,-617"/>
<text text-anchor="middle" x="749.5" y="-824.8" font-family="Microsoft Yahei" font-size="14.00" fill="#00ff00">skynet_module</text>
</g>
<g id="clust5" class="cluster">
<title>cluster_context</title>
<polygon fill="#ffd700" stroke="#ffd700" stroke-width="3" points="370,-204 370,-681 625,-681 625,-204 370,-204"/>
<text text-anchor="middle" x="497.5" y="-665.8" font-family="Microsoft Yahei" font-size="14.00" fill="#00ff00">skynet_context</text>
</g>
<g id="clust7" class="cluster">
<title>cluster_gqueue</title>
<polygon fill="#d3d3d3" stroke="#d3d3d3" points="706.5,-372 706.5,-609 792.5,-609 792.5,-372 706.5,-372"/>
<text text-anchor="middle" x="749.5" y="-593.8" font-family="Microsoft Yahei" font-size="14.00" fill="#000000">names list</text>
</g>
<!-- handle -->
<g id="node1" class="node">
<title>handle</title>
<path fill="none" stroke="#000000" d="M28,-342.5C28,-342.5 218,-342.5 218,-342.5 224,-342.5 230,-348.5 230,-354.5 230,-354.5 230,-575.5 230,-575.5 230,-581.5 224,-587.5 218,-587.5 218,-587.5 28,-587.5 28,-587.5 22,-587.5 16,-581.5 16,-575.5 16,-575.5 16,-354.5 16,-354.5 16,-348.5 22,-342.5 28,-342.5"/>
<text text-anchor="start" x="24" y="-572.3" font-family="Microsoft Yahei" font-size="14.00" fill="#000000">struct handle_storage {</text>
<polyline fill="none" stroke="#000000" points="16,-564.5 230,-564.5 "/>
<text text-anchor="start" x="24" y="-549.3" font-family="Microsoft Yahei" font-size="14.00" fill="#000000">struct rwlock lock;</text>
<polyline fill="none" stroke="#000000" points="16,-541.5 230,-541.5 "/>
<text text-anchor="start" x="24" y="-526.3" font-family="Microsoft Yahei" font-size="14.00" fill="#000000">uint32_t harbor;</text>
<polyline fill="none" stroke="#000000" points="16,-518.5 230,-518.5 "/>
<text text-anchor="start" x="24" y="-503.3" font-family="Microsoft Yahei" font-size="14.00" fill="#000000">uint32_t handle_index;</text>
<polyline fill="none" stroke="#000000" points="16,-495.5 230,-495.5 "/>
<text text-anchor="start" x="24" y="-480.3" font-family="Microsoft Yahei" font-size="14.00" fill="#000000">int slot_size;</text>
<polyline fill="none" stroke="#000000" points="16,-472.5 230,-472.5 "/>
<text text-anchor="middle" x="123" y="-457.3" font-family="Microsoft Yahei" font-size="14.00" fill="#000000">struct skynet_context ** slot;</text>
<text text-anchor="start" x="24" y="-442.3" font-family="Microsoft Yahei" font-size="14.00" fill="#000000">// 存储着所有服务实例</text>
<polyline fill="none" stroke="#000000" points="16,-434.5 230,-434.5 "/>
<text text-anchor="start" x="24" y="-419.3" font-family="Microsoft Yahei" font-size="14.00" fill="#000000">int name_cap;</text>
<polyline fill="none" stroke="#000000" points="16,-411.5 230,-411.5 "/>
<text text-anchor="start" x="24" y="-396.3" font-family="Microsoft Yahei" font-size="14.00" fill="#000000">int name_count;</text>
<polyline fill="none" stroke="#000000" points="16,-388.5 230,-388.5 "/>
<text text-anchor="start" x="24" y="-373.3" font-family="Microsoft Yahei" font-size="14.00" fill="#000000">struct handle_name *name;</text>
<polyline fill="none" stroke="#000000" points="16,-365.5 230,-365.5 "/>
<text text-anchor="start" x="24" y="-350.3" font-family="Microsoft Yahei" font-size="14.00" fill="#000000">}</text>
</g>
<!-- slots -->
<g id="node2" class="node">
<title>slots</title>
<polygon fill="none" stroke="#000000" points="277,-557 277,-649 331,-649 331,-557 277,-557"/>
<text text-anchor="middle" x="304" y="-633.8" font-family="Microsoft Yahei" font-size="14.00" fill="#000000">*ctx1</text>
<polyline fill="none" stroke="#000000" points="277,-626 331,-626 "/>
<text text-anchor="middle" x="304" y="-610.8" font-family="Microsoft Yahei" font-size="14.00" fill="#000000">*ctx2</text>
<polyline fill="none" stroke="#000000" points="277,-603 331,-603 "/>
<text text-anchor="middle" x="304" y="-587.8" font-family="Microsoft Yahei" font-size="14.00" fill="#000000">*ctx3</text>
<polyline fill="none" stroke="#000000" points="277,-580 331,-580 "/>
<text text-anchor="middle" x="304" y="-564.8" font-family="Microsoft Yahei" font-size="14.00" fill="#000000">...</text>
</g>
<!-- handle&#45;&gt;slots -->
<g id="edge1" class="edge">
<title>handle:slot&#45;&gt;slots</title>
<path fill="none" stroke="#000000" d="M230,-453C251.7539,-453 273.392,-504.3811 287.5983,-546.9997"/>
<polygon fill="#000000" stroke="#000000" points="280.6809,-542.1685 288.7793,-549 286.7087,-538.6093 280.6809,-542.1685"/>
<text text-anchor="middle" x="249.8345" y="-509.2131" font-family="Microsoft Yahei" font-size="14.00" fill="#000000">aaaa</text>
</g>
<!-- names -->
<g id="node3" class="node">
<title>names</title>
<polygon fill="none" stroke="#000000" points="272,-236 272,-328 336,-328 336,-236 272,-236"/>
<text text-anchor="middle" x="304" y="-312.8" font-family="Microsoft Yahei" font-size="14.00" fill="#000000">name1</text>
<polyline fill="none" stroke="#000000" points="272,-305 336,-305 "/>
<text text-anchor="middle" x="304" y="-289.8" font-family="Microsoft Yahei" font-size="14.00" fill="#000000">name2</text>
<polyline fill="none" stroke="#000000" points="272,-282 336,-282 "/>
<text text-anchor="middle" x="304" y="-266.8" font-family="Microsoft Yahei" font-size="14.00" fill="#000000">name3</text>
<polyline fill="none" stroke="#000000" points="272,-259 336,-259 "/>
<text text-anchor="middle" x="304" y="-243.8" font-family="Microsoft Yahei" font-size="14.00" fill="#000000">...</text>
</g>
<!-- handle&#45;&gt;names -->
<g id="edge2" class="edge">
<title>handle:name&#45;&gt;names</title>
<path fill="none" stroke="#000000" d="M230,-377C240.9379,-377 250.4959,-373.0321 258.781,-366.7181"/>
<polygon fill="#000000" stroke="#000000" points="261.1907,-369.2591 266.338,-359.9986 256.5393,-364.0279 261.1907,-369.2591"/>
<text text-anchor="middle" x="287.2904" y="-334.3978" font-family="Microsoft Yahei" font-size="14.00" fill="#000000">aaaa</text>
</g>
<!-- context -->
<g id="node5" class="node">
<title>context</title>
<polygon fill="none" stroke="#000000" points="378,-212.5 378,-649.5 617,-649.5 617,-212.5 378,-212.5"/>
<text text-anchor="start" x="386" y="-634.3" font-family="Microsoft Yahei" font-size="14.00" fill="#000000">struct skynet_context {</text>
<polyline fill="none" stroke="#000000" points="378,-626.5 617,-626.5 "/>
<text text-anchor="start" x="386" y="-611.3" font-family="Microsoft Yahei" font-size="14.00" fill="#000000">void * instance;</text>
<polyline fill="none" stroke="#000000" points="378,-603.5 617,-603.5 "/>
<text text-anchor="start" x="386" y="-588.3" font-family="Microsoft Yahei" font-size="14.00" fill="#000000">struct skynet_module * mod;</text>
<polyline fill="none" stroke="#000000" points="378,-580.5 617,-580.5 "/>
<text text-anchor="start" x="386" y="-565.3" font-family="Microsoft Yahei" font-size="14.00" fill="#000000">void * cb_ud;</text>
<polyline fill="none" stroke="#000000" points="378,-557.5 617,-557.5 "/>
<text text-anchor="start" x="386" y="-542.3" font-family="Microsoft Yahei" font-size="14.00" fill="#000000">skynet_cb cb;</text>
<polyline fill="none" stroke="#000000" points="378,-534.5 617,-534.5 "/>
<text text-anchor="start" x="386" y="-519.3" font-family="Microsoft Yahei" font-size="14.00" fill="#000000">struct message_queue *queue;</text>
<polyline fill="none" stroke="#000000" points="378,-511.5 617,-511.5 "/>
<text text-anchor="start" x="386" y="-496.3" font-family="Microsoft Yahei" font-size="14.00" fill="#000000">FILE * logfile;</text>
<polyline fill="none" stroke="#000000" points="378,-488.5 617,-488.5 "/>
<text text-anchor="start" x="386" y="-473.3" font-family="Microsoft Yahei" font-size="14.00" fill="#000000">uint64_t cpu_cost;// in microsec</text>
<polyline fill="none" stroke="#000000" points="378,-465.5 617,-465.5 "/>
<text text-anchor="start" x="386" y="-450.3" font-family="Microsoft Yahei" font-size="14.00" fill="#000000">uint64_t cpu_start;// in microsec</text>
<polyline fill="none" stroke="#000000" points="378,-442.5 617,-442.5 "/>
<text text-anchor="start" x="386" y="-427.3" font-family="Microsoft Yahei" font-size="14.00" fill="#000000">char result[32];</text>
<polyline fill="none" stroke="#000000" points="378,-419.5 617,-419.5 "/>
<text text-anchor="start" x="386" y="-404.3" font-family="Microsoft Yahei" font-size="14.00" fill="#000000">uint32_t handle;</text>
<polyline fill="none" stroke="#000000" points="378,-396.5 617,-396.5 "/>
<text text-anchor="start" x="386" y="-381.3" font-family="Microsoft Yahei" font-size="14.00" fill="#000000">int session_id;</text>
<polyline fill="none" stroke="#000000" points="378,-373.5 617,-373.5 "/>
<text text-anchor="start" x="386" y="-358.3" font-family="Microsoft Yahei" font-size="14.00" fill="#000000">int ref;</text>
<polyline fill="none" stroke="#000000" points="378,-350.5 617,-350.5 "/>
<text text-anchor="start" x="386" y="-335.3" font-family="Microsoft Yahei" font-size="14.00" fill="#000000">int message_count;</text>
<polyline fill="none" stroke="#000000" points="378,-327.5 617,-327.5 "/>
<text text-anchor="start" x="386" y="-312.3" font-family="Microsoft Yahei" font-size="14.00" fill="#000000">bool init;</text>
<polyline fill="none" stroke="#000000" points="378,-304.5 617,-304.5 "/>
<text text-anchor="start" x="386" y="-289.3" font-family="Microsoft Yahei" font-size="14.00" fill="#000000">bool endless;</text>
<polyline fill="none" stroke="#000000" points="378,-281.5 617,-281.5 "/>
<text text-anchor="start" x="386" y="-266.3" font-family="Microsoft Yahei" font-size="14.00" fill="#000000">bool profile;</text>
<polyline fill="none" stroke="#000000" points="378,-258.5 617,-258.5 "/>
<text text-anchor="start" x="386" y="-243.3" font-family="Microsoft Yahei" font-size="14.00" fill="#000000">CHECKCALLING_DECL</text>
<polyline fill="none" stroke="#000000" points="378,-235.5 617,-235.5 "/>
<text text-anchor="start" x="386" y="-220.3" font-family="Microsoft Yahei" font-size="14.00" fill="#000000">};</text>
</g>
<!-- slots&#45;&gt;context -->
<g id="edge4" class="edge">
<title>slots:e&#45;&gt;context:e</title>
<path fill="none" stroke="#000000" d="M331,-638C344.9251,-638 351.5456,-641.8851 360.2523,-645.3606"/>
<polygon fill="#000000" stroke="#000000" points="359.4098,-648.7673 370.0022,-648.5407 361.5804,-642.1123 359.4098,-648.7673"/>
</g>
<!-- name -->
<g id="node4" class="node">
<title>name</title>
<path fill="none" stroke="#000000" d="M428.5,-72C428.5,-72 566.5,-72 566.5,-72 572.5,-72 578.5,-78 578.5,-84 578.5,-84 578.5,-152 578.5,-152 578.5,-158 572.5,-164 566.5,-164 566.5,-164 428.5,-164 428.5,-164 422.5,-164 416.5,-158 416.5,-152 416.5,-152 416.5,-84 416.5,-84 416.5,-78 422.5,-72 428.5,-72"/>
<text text-anchor="middle" x="497.5" y="-148.8" font-family="Microsoft Yahei" font-size="14.00" fill="#000000">struct handle_name {</text>
<polyline fill="none" stroke="#000000" points="416.5,-141 578.5,-141 "/>
<text text-anchor="middle" x="497.5" y="-125.8" font-family="Microsoft Yahei" font-size="14.00" fill="#000000">char * name;</text>
<polyline fill="none" stroke="#000000" points="416.5,-118 578.5,-118 "/>
<text text-anchor="middle" x="497.5" y="-102.8" font-family="Microsoft Yahei" font-size="14.00" fill="#000000">uint32_t handle;</text>
<polyline fill="none" stroke="#000000" points="416.5,-95 578.5,-95 "/>
<text text-anchor="start" x="424.5" y="-79.8" font-family="Microsoft Yahei" font-size="14.00" fill="#000000">} </text>
</g>
<!-- names&#45;&gt;name -->
<g id="edge3" class="edge">
<title>names:f0&#45;&gt;name:w</title>
<path fill="none" stroke="#000000" d="M336,-317C390.1511,-317 348.9458,-249.8906 370,-200 384.826,-164.868 376.4776,-125.7597 406.446,-119.016"/>
<polygon fill="#000000" stroke="#000000" points="401.0885,-125.5711 408.5,-118 397.9847,-119.2967 401.0885,-125.5711"/>
</g>
<!-- module -->
<g id="node6" class="node">
<title>module</title>
<path fill="none" stroke="#000000" d="M665,-625C665,-625 834,-625 834,-625 840,-625 846,-631 846,-637 846,-637 846,-797 846,-797 846,-803 840,-809 834,-809 834,-809 665,-809 665,-809 659,-809 653,-803 653,-797 653,-797 653,-637 653,-637 653,-631 659,-625 665,-625"/>
<text text-anchor="start" x="661" y="-793.8" font-family="Microsoft Yahei" font-size="14.00" fill="#000000">struct skynet_module {</text>
<polyline fill="none" stroke="#000000" points="653,-786 846,-786 "/>
<text text-anchor="start" x="661" y="-770.8" font-family="Microsoft Yahei" font-size="14.00" fill="#000000">const char * name;</text>
<polyline fill="none" stroke="#000000" points="653,-763 846,-763 "/>
<text text-anchor="start" x="661" y="-747.8" font-family="Microsoft Yahei" font-size="14.00" fill="#000000">void * module;</text>
<polyline fill="none" stroke="#000000" points="653,-740 846,-740 "/>
<text text-anchor="start" x="661" y="-724.8" font-family="Microsoft Yahei" font-size="14.00" fill="#000000">skynet_dl_create create;</text>
<polyline fill="none" stroke="#000000" points="653,-717 846,-717 "/>
<text text-anchor="start" x="661" y="-701.8" font-family="Microsoft Yahei" font-size="14.00" fill="#000000">skynet_dl_init init;</text>
<polyline fill="none" stroke="#000000" points="653,-694 846,-694 "/>
<text text-anchor="start" x="661" y="-678.8" font-family="Microsoft Yahei" font-size="14.00" fill="#000000">skynet_dl_release release;</text>
<polyline fill="none" stroke="#000000" points="653,-671 846,-671 "/>
<text text-anchor="start" x="661" y="-655.8" font-family="Microsoft Yahei" font-size="14.00" fill="#000000">skynet_dl_signal signal;</text>
<polyline fill="none" stroke="#000000" points="653,-648 846,-648 "/>
<text text-anchor="start" x="661" y="-632.8" font-family="Microsoft Yahei" font-size="14.00" fill="#000000">};</text>
</g>
<!-- context&#45;&gt;module -->
<g id="edge5" class="edge">
<title>context:mod&#45;&gt;module</title>
<path fill="none" stroke="#00ff00" d="M617.5,-592C618.7723,-592 621.8189,-593.9838 626.1726,-597.4515"/>
<path fill="none" stroke="#ff0000" d="M626.1726,-597.4515C629.075,-599.7633 632.5584,-602.7346 636.4842,-606.2174"/>
<path fill="none" stroke="#0000ff" d="M636.4842,-606.2174C642.373,-611.4416 649.2573,-617.8165 656.67,-624.8423"/>
</g>
<!-- gqueue1 -->
<g id="node7" class="node">
<title>gqueue1</title>
<polygon fill="none" stroke="#000000" points="776.5,-416 722.5,-416 722.5,-380 776.5,-380 776.5,-416"/>
<text text-anchor="middle" x="749.5" y="-394.3" font-family="Microsoft Yahei" font-size="14.00" fill="#000000">mq1</text>
</g>
<!-- context&#45;&gt;gqueue1 -->
<g id="edge9" class="edge">
<title>context:queue&#45;&gt;gqueue1</title>
<path fill="none" stroke="#000000" d="M617.5,-523C662.7379,-523 612.6821,-456.6547 645,-425 662.6812,-407.6817 689.9352,-401.0466 712.1772,-398.6809"/>
<polygon fill="#000000" stroke="#000000" points="712.628,-402.1558 722.3096,-397.8527 712.0576,-395.1791 712.628,-402.1558"/>
</g>
<!-- gqueue2 -->
<g id="node8" class="node">
<title>gqueue2</title>
<polygon fill="none" stroke="#000000" points="776.5,-470 722.5,-470 722.5,-434 776.5,-434 776.5,-470"/>
<text text-anchor="middle" x="749.5" y="-448.3" font-family="Microsoft Yahei" font-size="14.00" fill="#000000">mq2</text>
</g>
<!-- gqueue1&#45;&gt;gqueue2 -->
<g id="edge6" class="edge">
<title>gqueue1&#45;&gt;gqueue2</title>
<path fill="none" stroke="#000000" d="M749.5,-416.1406C749.5,-418.6226 749.5,-421.1046 749.5,-423.5865"/>
<polygon fill="#000000" stroke="#000000" points="746.0001,-423.7901 749.5,-433.7902 753.0001,-423.7902 746.0001,-423.7901"/>
</g>
<!-- gqueue3 -->
<g id="node9" class="node">
<title>gqueue3</title>
<polygon fill="none" stroke="#000000" points="776.5,-524 722.5,-524 722.5,-488 776.5,-488 776.5,-524"/>
<text text-anchor="middle" x="749.5" y="-502.3" font-family="Microsoft Yahei" font-size="14.00" fill="#000000">mq3</text>
</g>
<!-- gqueue2&#45;&gt;gqueue3 -->
<g id="edge7" class="edge">
<title>gqueue2&#45;&gt;gqueue3</title>
<path fill="none" stroke="#000000" d="M749.5,-470.1406C749.5,-472.6226 749.5,-475.1046 749.5,-477.5865"/>
<polygon fill="#000000" stroke="#000000" points="746.0001,-477.7901 749.5,-487.7902 753.0001,-477.7902 746.0001,-477.7901"/>
</g>
<!-- gqueue4 -->
<g id="node10" class="node">
<title>gqueue4</title>
<polygon fill="none" stroke="#000000" points="776.5,-578 722.5,-578 722.5,-542 776.5,-542 776.5,-578"/>
<text text-anchor="middle" x="749.5" y="-556.3" font-family="Microsoft Yahei" font-size="14.00" fill="#000000">...</text>
</g>
<!-- gqueue3&#45;&gt;gqueue4 -->
<g id="edge8" class="edge">
<title>gqueue3&#45;&gt;gqueue4</title>
<path fill="none" stroke="#000000" d="M749.5,-524.1406C749.5,-526.6226 749.5,-529.1046 749.5,-531.5865"/>
<polygon fill="#000000" stroke="#000000" points="746.0001,-531.7901 749.5,-541.7902 753.0001,-531.7902 746.0001,-531.7901"/>
</g>
</g>
</svg>
