<?xml version="1.0" encoding="UTF-8" standalone="no"?>
<!DOCTYPE svg PUBLIC "-//W3C//DTD SVG 1.1//EN"
 "http://www.w3.org/Graphics/SVG/1.1/DTD/svg11.dtd">
<!-- Generated by graphviz version 2.38.0 (20140413.2041)
 -->
<!-- Title: G Pages: 1 -->
<svg width="442pt" height="216pt"
 viewBox="0.00 0.00 442.00 215.50" xmlns="http://www.w3.org/2000/svg" xmlns:xlink="http://www.w3.org/1999/xlink">
<g id="graph0" class="graph" transform="scale(1 1) rotate(0) translate(4 211.5)">
<title>G</title>
<polygon fill="white" stroke="none" points="-4,4 -4,-211.5 438,-211.5 438,4 -4,4"/>
<text text-anchor="middle" x="217" y="-7.8" font-family="Times New Roman,serif" font-size="14.00">socket实例的 id 分布</text>
<!-- node0 -->
<g id="node1" class="node"><title>node0</title>
<polygon fill="none" stroke="black" points="0,-23.5 0,-203.5 80,-203.5 80,-23.5 0,-23.5"/>
<text text-anchor="middle" x="40" y="-187.3" font-family="Times New Roman,serif" font-size="14.00">slot[0]</text>
<polyline fill="none" stroke="black" points="0,-178.5 80,-178.5 "/>
<text text-anchor="middle" x="40" y="-161.8" font-family="Times New Roman,serif" font-size="14.00">slot[1]</text>
<polyline fill="none" stroke="black" points="0,-152.5 80,-152.5 "/>
<text text-anchor="middle" x="40" y="-135.8" font-family="Times New Roman,serif" font-size="14.00">slot[3]</text>
<polyline fill="none" stroke="black" points="0,-126.5 80,-126.5 "/>
<text text-anchor="middle" x="40" y="-110.3" font-family="Times New Roman,serif" font-size="14.00">...</text>
<polyline fill="none" stroke="black" points="0,-101.5 80,-101.5 "/>
<text text-anchor="middle" x="40" y="-84.8" font-family="Times New Roman,serif" font-size="14.00">...</text>
<polyline fill="none" stroke="black" points="0,-75.5 80,-75.5 "/>
<text text-anchor="middle" x="40" y="-58.8" font-family="Times New Roman,serif" font-size="14.00">slot[65534]</text>
<polyline fill="none" stroke="black" points="0,-49.5 80,-49.5 "/>
<text text-anchor="middle" x="40" y="-32.8" font-family="Times New Roman,serif" font-size="14.00">slot[65535]</text>
</g>
<!-- node1 -->
<g id="node2" class="node"><title>node1</title>
<polygon fill="none" stroke="black" points="212,-182 212,-205 425,-205 425,-182 212,-182"/>
<text text-anchor="middle" x="240.5" y="-189.8" font-family="Times New Roman,serif" font-size="14.00">0x0000</text>
<polyline fill="none" stroke="black" points="269,-182 269,-205 "/>
<text text-anchor="middle" x="301" y="-189.8" font-family="Times New Roman,serif" font-size="14.00">0x10000</text>
<polyline fill="none" stroke="black" points="333,-182 333,-205 "/>
<text text-anchor="middle" x="365" y="-189.8" font-family="Times New Roman,serif" font-size="14.00">0x20000</text>
<polyline fill="none" stroke="black" points="397,-182 397,-205 "/>
<text text-anchor="middle" x="411" y="-189.8" font-family="Times New Roman,serif" font-size="14.00">...</text>
</g>
<!-- node0&#45;&gt;node1 -->
<g id="edge1" class="edge"><title>node0:f0&#45;&gt;node1:n</title>
<path fill="none" stroke="black" d="M80,-191.5C80,-191.5 169.496,-192.872 200.26,-193.343"/>
<polygon fill="black" stroke="black" points="200.448,-196.846 210.5,-193.5 200.555,-189.847 200.448,-196.846"/>
<text text-anchor="middle" x="141.5" y="-196.3" font-family="Times New Roman,serif" font-size="14.00">slot[0]&#45;&gt;id</text>
</g>
<!-- node2 -->
<g id="node3" class="node"><title>node2</title>
<polygon fill="none" stroke="black" points="212,-154 212,-177 425,-177 425,-154 212,-154"/>
<text text-anchor="middle" x="240.5" y="-161.8" font-family="Times New Roman,serif" font-size="14.00">0x0001</text>
<polyline fill="none" stroke="black" points="269,-154 269,-177 "/>
<text text-anchor="middle" x="301" y="-161.8" font-family="Times New Roman,serif" font-size="14.00">0x10000</text>
<polyline fill="none" stroke="black" points="333,-154 333,-177 "/>
<text text-anchor="middle" x="365" y="-161.8" font-family="Times New Roman,serif" font-size="14.00">0x20001</text>
<polyline fill="none" stroke="black" points="397,-154 397,-177 "/>
<text text-anchor="middle" x="411" y="-161.8" font-family="Times New Roman,serif" font-size="14.00">...</text>
</g>
<!-- node0&#45;&gt;node2 -->
<g id="edge2" class="edge"><title>node0:f1&#45;&gt;node2:n</title>
<path fill="none" stroke="black" d="M80,-165.5C80,-165.5 169.496,-165.5 200.26,-165.5"/>
<polygon fill="black" stroke="black" points="200.5,-169 210.5,-165.5 200.5,-162 200.5,-169"/>
<text text-anchor="middle" x="141.5" y="-169.3" font-family="Times New Roman,serif" font-size="14.00">slot[1]&#45;&gt;id</text>
</g>
<!-- node3 -->
<g id="node4" class="node"><title>node3</title>
<polygon fill="none" stroke="black" points="212,-126 212,-149 425,-149 425,-126 212,-126"/>
<text text-anchor="middle" x="240.5" y="-133.8" font-family="Times New Roman,serif" font-size="14.00">0x0002</text>
<polyline fill="none" stroke="black" points="269,-126 269,-149 "/>
<text text-anchor="middle" x="301" y="-133.8" font-family="Times New Roman,serif" font-size="14.00">0x10000</text>
<polyline fill="none" stroke="black" points="333,-126 333,-149 "/>
<text text-anchor="middle" x="365" y="-133.8" font-family="Times New Roman,serif" font-size="14.00">0x20002</text>
<polyline fill="none" stroke="black" points="397,-126 397,-149 "/>
<text text-anchor="middle" x="411" y="-133.8" font-family="Times New Roman,serif" font-size="14.00">...</text>
</g>
<!-- node0&#45;&gt;node3 -->
<g id="edge3" class="edge"><title>node0:f2&#45;&gt;node3:n</title>
<path fill="none" stroke="black" d="M80,-139.5C80,-139.5 169.496,-138.128 200.26,-137.657"/>
<polygon fill="black" stroke="black" points="200.555,-141.153 210.5,-137.5 200.448,-134.154 200.555,-141.153"/>
<text text-anchor="middle" x="141.5" y="-142.3" font-family="Times New Roman,serif" font-size="14.00">slot[2]&#45;&gt;id</text>
</g>
<!-- node4 -->
<g id="node5" class="node"><title>node4</title>
<polygon fill="none" stroke="black" points="203,-52 203,-75 434,-75 434,-52 203,-52"/>
<text text-anchor="middle" x="234.5" y="-59.8" font-family="Times New Roman,serif" font-size="14.00">0xFFFE</text>
<polyline fill="none" stroke="black" points="266,-52 266,-75 "/>
<text text-anchor="middle" x="301" y="-59.8" font-family="Times New Roman,serif" font-size="14.00">0x1FFFE</text>
<polyline fill="none" stroke="black" points="336,-52 336,-75 "/>
<text text-anchor="middle" x="371" y="-59.8" font-family="Times New Roman,serif" font-size="14.00">0x2FFFE</text>
<polyline fill="none" stroke="black" points="406,-52 406,-75 "/>
<text text-anchor="middle" x="420" y="-59.8" font-family="Times New Roman,serif" font-size="14.00">...</text>
</g>
<!-- node0&#45;&gt;node4 -->
<g id="edge4" class="edge"><title>node0:f5&#45;&gt;node4:n</title>
<path fill="none" stroke="black" d="M80,-62.5C80,-62.5 163.558,-63.1793 192.934,-63.4182"/>
<polygon fill="black" stroke="black" points="192.972,-66.9185 203,-63.5 193.029,-59.9187 192.972,-66.9185"/>
<text text-anchor="middle" x="141.5" y="-66.3" font-family="Times New Roman,serif" font-size="14.00">slot[65534]&#45;&gt;id</text>
</g>
<!-- node5 -->
<g id="node6" class="node"><title>node5</title>
<polygon fill="none" stroke="black" points="203,-24 203,-47 434,-47 434,-24 203,-24"/>
<text text-anchor="middle" x="234.5" y="-31.8" font-family="Times New Roman,serif" font-size="14.00">0xFFFF</text>
<polyline fill="none" stroke="black" points="266,-24 266,-47 "/>
<text text-anchor="middle" x="301" y="-31.8" font-family="Times New Roman,serif" font-size="14.00">0x1FFFF</text>
<polyline fill="none" stroke="black" points="336,-24 336,-47 "/>
<text text-anchor="middle" x="371" y="-31.8" font-family="Times New Roman,serif" font-size="14.00">0x2FFFF</text>
<polyline fill="none" stroke="black" points="406,-24 406,-47 "/>
<text text-anchor="middle" x="420" y="-31.8" font-family="Times New Roman,serif" font-size="14.00">...</text>
</g>
<!-- node0&#45;&gt;node5 -->
<g id="edge5" class="edge"><title>node0:f6&#45;&gt;node5:n</title>
<path fill="none" stroke="black" d="M80,-36.5C80,-36.5 163.558,-35.8207 192.934,-35.5818"/>
<polygon fill="black" stroke="black" points="193.029,-39.0813 203,-35.5 192.972,-32.0815 193.029,-39.0813"/>
<text text-anchor="middle" x="141.5" y="-40.3" font-family="Times New Roman,serif" font-size="14.00">slot[65535]&#45;&gt;id</text>
</g>
</g>
</svg>
