<?xml version="1.0" encoding="UTF-8" standalone="no"?><svg xmlns="http://www.w3.org/2000/svg" xmlns:xlink="http://www.w3.org/1999/xlink" contentScriptType="application/ecmascript" contentStyleType="text/css" height="332px" preserveAspectRatio="none" style="width:628px;height:332px;background:#EEEBDC;" version="1.1" viewBox="0 0 628 332" width="628px" zoomAndPan="magnify"><defs><filter height="300%" id="f5u28gkymlkai" width="300%" x="-1" y="-1"><feGaussianBlur result="blurOut" stdDeviation="2.0"/><feColorMatrix in="blurOut" result="blurOut2" type="matrix" values="0 0 0 0 0 0 0 0 0 0 0 0 0 0 0 0 0 0 .4 0"/><feOffset dx="4.0" dy="4.0" in="blurOut2" result="blurOut3"/><feBlend in="SourceGraphic" in2="blurOut3" mode="normal"/></filter></defs><g><polygon fill="#A9DCDF" filter="url(#f5u28gkymlkai)" points="277,72.9219,277,72.9919,279,72.7838,281,72.9863,283,73.0551,285,72.6841,287,72.9219,286.9223,72.9219,286.5735,82.8051,286.6165,92.6883,286.9318,102.5715,286.3086,112.4547,287.5536,122.3379,286.3697,132.2211,286.8022,142.1043,287.4319,151.9875,286.9142,161.8707,287.0682,171.7539,286.9681,181.6371,287.1785,191.5203,287.2391,201.4035,287.5857,211.2867,287.6711,221.1699,287.6793,231.0531,287.2546,240.9363,287.4636,250.8195,287.7022,260.7027,287,270.5859,287,270.3455,285,270.8121,283,270.4871,281,270.7639,279,270.4209,277,270.5859,276.9315,270.5859,277.7416,260.7027,276.9513,250.8195,277.1053,240.9363,277.3386,231.0531,277.4162,221.1699,276.9961,211.2867,277.2872,201.4035,276.4276,191.5203,277.2844,181.6371,277.5482,171.7539,277.4445,161.8707,277.613,151.9875,276.5169,142.1043,276.3478,132.2211,276.3786,122.3379,276.9411,112.4547,276.8035,102.5715,277.6814,92.6883,276.8253,82.8051,277,72.9219" style="stroke: #0000FF; stroke-width: 1.0;"/><path d="M30,41.7891 L30.2802,41.7891 L29.4476,51.6609 L30.2577,61.5328 L30.5329,71.4047 L29.0488,81.2766 L29.8964,91.1484 L29.4313,101.0203 L29.4887,110.8922 L29.9091,120.7641 L29.0782,130.6359 L30.7382,140.5078 L29.1596,150.3797 L29.7363,160.2516 L30.5759,170.1234 L29.8856,179.9953 L30.091,189.8672 L29.9574,199.7391 L30.238,209.6109 L30.3188,219.4828 L30.7809,229.3547 L30.8947,239.2266 L30.9057,249.0984 L30.3395,258.9703 L30.6181,268.8422 L30.9363,278.7141 L30,288.5859 " fill="none" style="stroke: #0000FF; stroke-width: 1.0; stroke-dasharray: 5.0,5.0;"/><path d="M282,41.7891 L282.2802,41.7891 L281.4476,51.6609 L282.2577,61.5328 L282.5329,71.4047 L281.0488,81.2766 L281.8964,91.1484 L281.4313,101.0203 L281.4887,110.8922 L281.9091,120.7641 L281.0782,130.6359 L282.7382,140.5078 L281.1596,150.3797 L281.7363,160.2516 L282.5759,170.1234 L281.8856,179.9953 L282.091,189.8672 L281.9574,199.7391 L282.238,209.6109 L282.3188,219.4828 L282.7809,229.3547 L282.8947,239.2266 L282.9057,249.0984 L282.3395,258.9703 L282.6181,268.8422 L282.9363,278.7141 L282,288.5859 " fill="none" style="stroke: #0000FF; stroke-width: 1.0; stroke-dasharray: 5.0,5.0;"/><polygon fill="#1E90FF" filter="url(#f5u28gkymlkai)" points="8,3,8,3.0701,16,2.8619,24,3.0644,32,3.1332,40,2.7622,48,3,47.9741,3,47.8578,9.7578,47.8722,16.5156,47.9773,23.2734,47.7695,30.0313,48,36.7891,48,36.9736,40,36.579,32,36.7231,24,36.933,16,36.7605,8,36.7891,8.0227,36.7891,7.9894,30.0313,8.0595,23.2734,8.0797,16.5156,8.1952,9.7578,8,3" style="stroke: #00BFFF; stroke-width: 1.5;"/><text fill="#A9DCDF" font-family="Impact" font-size="17" lengthAdjust="spacingAndGlyphs" textLength="26" x="15" y="25.7798">lua</text><polygon fill="#1E90FF" filter="url(#f5u28gkymlkai)" points="8,287.5859,8,287.656,16,287.4478,24,287.6504,32,287.7192,40,287.3481,48,287.5859,47.9741,287.5859,47.8578,294.3438,47.8722,301.1016,47.9773,307.8594,47.7695,314.6172,48,321.375,48,321.5595,40,321.1649,32,321.3091,24,321.519,16,321.3464,8,321.375,8.0227,321.375,7.9894,314.6172,8.0595,307.8594,8.0797,301.1016,8.1952,294.3438,8,287.5859" style="stroke: #00BFFF; stroke-width: 1.5;"/><text fill="#A9DCDF" font-family="Impact" font-size="17" lengthAdjust="spacingAndGlyphs" textLength="26" x="15" y="310.3657">lua</text><polygon fill="#1E90FF" filter="url(#f5u28gkymlkai)" points="269,3,269,3.0701,273.4,2.8619,277.8,3.0644,282.2,3.1332,286.6,2.7622,291,3,290.9741,3,290.8578,9.7578,290.8722,16.5156,290.9773,23.2734,290.7695,30.0313,291,36.7891,291,36.9736,286.6,36.579,282.2,36.7231,277.8,36.933,273.4,36.7605,269,36.7891,269.0227,36.7891,268.9894,30.0313,269.0595,23.2734,269.0797,16.5156,269.1952,9.7578,269,3" style="stroke: #00BFFF; stroke-width: 1.5;"/><text fill="#A9DCDF" font-family="Impact" font-size="17" lengthAdjust="spacingAndGlyphs" textLength="8" x="276" y="25.7798">c</text><polygon fill="#1E90FF" filter="url(#f5u28gkymlkai)" points="269,287.5859,269,287.656,273.4,287.4478,277.8,287.6504,282.2,287.7192,286.6,287.3481,291,287.5859,290.9741,287.5859,290.8578,294.3438,290.8722,301.1016,290.9773,307.8594,290.7695,314.6172,291,321.375,291,321.5595,286.6,321.1649,282.2,321.3091,277.8,321.519,273.4,321.3464,269,321.375,269.0227,321.375,268.9894,314.6172,269.0595,307.8594,269.0797,301.1016,269.1952,294.3438,269,287.5859" style="stroke: #00BFFF; stroke-width: 1.5;"/><text fill="#A9DCDF" font-family="Impact" font-size="17" lengthAdjust="spacingAndGlyphs" textLength="8" x="276" y="310.3657">c</text><polygon fill="#A9DCDF" filter="url(#f5u28gkymlkai)" points="277,72.9219,277,72.9919,279,72.7838,281,72.9863,283,73.0551,285,72.6841,287,72.9219,286.9223,72.9219,286.5735,82.8051,286.6165,92.6883,286.9318,102.5715,286.3086,112.4547,287.5536,122.3379,286.3697,132.2211,286.8022,142.1043,287.4319,151.9875,286.9142,161.8707,287.0682,171.7539,286.9681,181.6371,287.1785,191.5203,287.2391,201.4035,287.5857,211.2867,287.6711,221.1699,287.6793,231.0531,287.2546,240.9363,287.4636,250.8195,287.7022,260.7027,287,270.5859,287,270.3455,285,270.8121,283,270.4871,281,270.7639,279,270.4209,277,270.5859,276.9315,270.5859,277.7416,260.7027,276.9513,250.8195,277.1053,240.9363,277.3386,231.0531,277.4162,221.1699,276.9961,211.2867,277.2872,201.4035,276.4276,191.5203,277.2844,181.6371,277.5482,171.7539,277.4445,161.8707,277.613,151.9875,276.5169,142.1043,276.3478,132.2211,276.3786,122.3379,276.9411,112.4547,276.8035,102.5715,277.6814,92.6883,276.8253,82.8051,277,72.9219" style="stroke: #0000FF; stroke-width: 1.0;"/><polygon fill="#00BFFF" points="265,68.9219,265.026,68.9869,266.9487,69.5936,269.0239,70.5817,271.0495,71.4456,272.9117,71.9011,275,72.9219,274.9904,72.8978,272.9472,73.5899,270.9525,74.4032,268.9916,75.3008,266.9144,75.9079,265,76.9219,265.1305,77.0524,265.6514,75.9733,266.5534,75.2753,267.5018,74.6237,268.1798,73.7017,269,72.9219,269.0161,72.938,268.1925,72.1143,267.4421,71.364,266.6564,70.5782,265.938,69.8599,265,68.9219" style="stroke: #00BFFF; stroke-width: 1.0;"/><path d="M30,72.9219 L30,73.2021 L40.0417,72.3694 L50.0833,73.1796 L60.125,73.4548 L70.1667,71.9707 L80.2083,72.8183 L90.25,72.3532 L100.2917,72.4105 L110.3333,72.831 L120.375,72 L130.4167,73.6601 L140.4583,72.0815 L150.5,72.6582 L160.5417,73.4978 L170.5833,72.8075 L180.625,73.0129 L190.6667,72.8793 L200.7083,73.1599 L210.75,73.2407 L220.7917,73.7028 L230.8333,73.8166 L240.875,73.8276 L250.9167,73.2614 L260.9583,73.54 L271,72.9219 " fill="none" style="stroke: #00BFFF; stroke-width: 1.0;"/><text fill="#000000" font-family="sans-serif" font-size="13" lengthAdjust="spacingAndGlyphs" textLength="228" x="39.5" y="67.856">c.command("LAUNCH", "snlua xxx")</text><path d="M287,102.0547 L287,102.1481 L295.4,101.8705 L303.8,102.1406 L312.2,102.2323 L320.6,101.7376 L329,102.0547 " fill="none" style="stroke: #00BFFF; stroke-width: 1.0;"/><path d="M329,102.0547 L329.0934,102.0547 L328.8159,104.6547 L329.0859,107.2547 L329.1776,109.8547 L328.6829,112.4547 L329,115.0547 " fill="none" style="stroke: #00BFFF; stroke-width: 1.0;"/><path d="M288,115.0547 L288,115.1481 L296.2,114.8705 L304.4,115.1406 L312.6,115.2323 L320.8,114.7376 L329,115.0547 " fill="none" style="stroke: #00BFFF; stroke-width: 1.0;"/><polygon fill="#00BFFF" points="298,111.0547,298.026,111.1197,295.9487,111.7265,294.0239,112.7145,292.0495,113.5784,289.9117,114.0339,288,115.0547,287.9904,115.0306,289.9472,115.7227,291.9525,116.536,293.9916,117.4336,295.9144,118.0407,298,119.0547,298.1305,119.1852,297.0514,118.1061,296.3534,117.4081,295.7018,116.7565,294.7798,115.8345,294,115.0547,294.0161,115.0708,294.7925,114.2472,295.6421,113.4968,296.4564,112.7111,297.338,111.9927,298,111.0547" style="stroke: #00BFFF; stroke-width: 1.0;"/><text fill="#000000" font-family="sans-serif" font-size="13" lengthAdjust="spacingAndGlyphs" textLength="85" x="294" y="96.9888">lcommand(L)</text><path d="M287,144.1875 L287,144.2809 L295.4,144.0034 L303.8,144.2734 L312.2,144.3651 L320.6,143.8704 L329,144.1875 " fill="none" style="stroke: #00BFFF; stroke-width: 1.0;"/><path d="M329,144.1875 L329.0934,144.1875 L328.8159,146.7875 L329.0859,149.3875 L329.1776,151.9875 L328.6829,154.5875 L329,157.1875 " fill="none" style="stroke: #00BFFF; stroke-width: 1.0;"/><path d="M288,157.1875 L288,157.2809 L296.2,157.0034 L304.4,157.2734 L312.6,157.3651 L320.8,156.8704 L329,157.1875 " fill="none" style="stroke: #00BFFF; stroke-width: 1.0;"/><polygon fill="#00BFFF" points="298,153.1875,298.026,153.2525,295.9487,153.8593,294.0239,154.8473,292.0495,155.7112,289.9117,156.1667,288,157.1875,287.9904,157.1634,289.9472,157.8555,291.9525,158.6688,293.9916,159.5664,295.9144,160.1735,298,161.1875,298.1305,161.318,297.0514,160.2389,296.3534,159.5409,295.7018,158.8893,294.7798,157.9673,294,157.1875,294.0161,157.2036,294.7925,156.38,295.6421,155.6296,296.4564,154.8439,297.338,154.1255,298,153.1875" style="stroke: #00BFFF; stroke-width: 1.0;"/><text fill="#000000" font-family="sans-serif" font-size="13" lengthAdjust="spacingAndGlyphs" textLength="322" x="294" y="139.1216">skynet_command(context, "LAUNCH", "snlua xxx")</text><path d="M287,186.3203 L287,186.4137 L295.4,186.1362 L303.8,186.4062 L312.2,186.4979 L320.6,186.0032 L329,186.3203 " fill="none" style="stroke: #00BFFF; stroke-width: 1.0;"/><path d="M329,186.3203 L329.0934,186.3203 L328.8159,188.9203 L329.0859,191.5203 L329.1776,194.1203 L328.6829,196.7203 L329,199.3203 " fill="none" style="stroke: #00BFFF; stroke-width: 1.0;"/><path d="M288,199.3203 L288,199.4137 L296.2,199.1362 L304.4,199.4062 L312.6,199.4979 L320.8,199.0032 L329,199.3203 " fill="none" style="stroke: #00BFFF; stroke-width: 1.0;"/><polygon fill="#00BFFF" points="298,195.3203,298.026,195.3854,295.9487,195.9921,294.0239,196.9801,292.0495,197.844,289.9117,198.2995,288,199.3203,287.9904,199.2963,289.9472,199.9883,291.9525,200.8016,293.9916,201.6992,295.9144,202.3063,298,203.3203,298.1305,203.4508,297.0514,202.3718,296.3534,201.6737,295.7018,201.0221,294.7798,200.1001,294,199.3203,294.0161,199.3364,294.7925,198.5128,295.6421,197.7624,296.4564,196.9767,297.338,196.2584,298,195.3203" style="stroke: #00BFFF; stroke-width: 1.0;"/><text fill="#000000" font-family="sans-serif" font-size="13" lengthAdjust="spacingAndGlyphs" textLength="212" x="294" y="181.2544">cmd_launch(context, "snlua xxx")</text><path d="M287,228.4531 L287,228.5465 L295.4,228.269 L303.8,228.539 L312.2,228.6308 L320.6,228.1361 L329,228.4531 " fill="none" style="stroke: #00BFFF; stroke-width: 1.0;"/><path d="M329,228.4531 L329.0934,228.4531 L328.8159,231.0531 L329.0859,233.6531 L329.1776,236.2531 L328.6829,238.8531 L329,241.4531 " fill="none" style="stroke: #00BFFF; stroke-width: 1.0;"/><path d="M288,241.4531 L288,241.5465 L296.2,241.269 L304.4,241.539 L312.6,241.6308 L320.8,241.1361 L329,241.4531 " fill="none" style="stroke: #00BFFF; stroke-width: 1.0;"/><polygon fill="#00BFFF" points="298,237.4531,298.026,237.5182,295.9487,238.1249,294.0239,239.1129,292.0495,239.9768,289.9117,240.4323,288,241.4531,287.9904,241.4291,289.9472,242.1211,291.9525,242.9344,293.9916,243.832,295.9144,244.4392,298,245.4531,298.1305,245.5836,297.0514,244.5046,296.3534,243.8065,295.7018,243.1549,294.7798,242.2329,294,241.4531,294.0161,241.4692,294.7925,240.6456,295.6421,239.8952,296.4564,239.1095,297.338,238.3912,298,237.4531" style="stroke: #00BFFF; stroke-width: 1.0;"/><text fill="#000000" font-family="sans-serif" font-size="13" lengthAdjust="spacingAndGlyphs" textLength="222" x="294" y="223.3872">skynet_context_new("snlua", "xxx")</text><polygon fill="#00BFFF" points="41,266.5859,41.026,266.651,38.9487,267.2577,37.0239,268.2458,35.0495,269.1096,32.9117,269.5651,31,270.5859,30.9904,270.5619,32.9472,271.2539,34.9525,272.0672,36.9916,272.9648,38.9144,273.572,41,274.5859,41.1305,274.7164,40.0514,273.6374,39.3534,272.9393,38.7018,272.2877,37.7798,271.3657,37,270.5859,37.0161,270.602,37.7925,269.7784,38.6421,269.028,39.4564,268.2423,40.338,267.524,41,266.5859" style="stroke: #00BFFF; stroke-width: 1.0;"/><path d="M35,270.5859 L35,270.8662 L44.84,270.0335 L54.68,270.8437 L64.52,271.1188 L74.36,269.6347 L84.2,270.4823 L94.04,270.0173 L103.88,270.0746 L113.72,270.4951 L123.56,269.6641 L133.4,271.3241 L143.24,269.7456 L153.08,270.3222 L162.92,271.1619 L172.76,270.4716 L182.6,270.6769 L192.44,270.5433 L202.28,270.824 L212.12,270.9048 L221.96,271.3669 L231.8,271.4807 L241.64,271.4916 L251.48,270.9254 L261.32,271.2041 L271.16,271.5222 L281,270.5859 " fill="none" style="stroke: #00BFFF; stroke-width: 1.0; stroke-dasharray: 2.0,2.0;"/><text fill="#000000" font-family="sans-serif" font-size="13" lengthAdjust="spacingAndGlyphs" textLength="61" x="125.5" y="265.52">id_to_hex</text><!--MD5=[04d35d6a29f058eb994d16ac763a8a0a]
@startuml
skinparam sequenceMessageAlign center
skinparam backgroundColor #EEEBDC
skinparam handwritten true

skinparam sequence {
    ArrowColor DeepSkyBlue
    ActorBorderColor DeepSkyBlue
    LifeLineBorderColor blue
    LifeLineBackgroundColor #A9DCDF
    ParticipantBorderColor DeepSkyBlue
    ParticipantBackgroundColor DodgerBlue
    ParticipantFontName Impact
    ParticipantFontSize 17
    ParticipantFontColor #A9DCDF
    ActorBackgroundColor aqua
    ActorFontColor DeepSkyBlue
    ActorFontSize 17
    ActorFontName Aapex
}

lua -> c : c.command("LAUNCH", "snlua xxx")
activate c

c -> c : lcommand(L)
c -> c : skynet_command(context, "LAUNCH", "snlua xxx")
c -> c : cmd_launch(context, "snlua xxx")
c -> c : skynet_context_new("snlua", "xxx")
'note over c: This is displayed over Alice.

return id_to_hex
@enduml

@startuml
skinparam sequenceMessageAlign center
skinparam backgroundColor #EEEBDC
skinparam handwritten true

skinparam sequence {
    ArrowColor DeepSkyBlue
    ActorBorderColor DeepSkyBlue
    LifeLineBorderColor blue
    LifeLineBackgroundColor #A9DCDF
    ParticipantBorderColor DeepSkyBlue
    ParticipantBackgroundColor DodgerBlue
    ParticipantFontName Impact
    ParticipantFontSize 17
    ParticipantFontColor #A9DCDF
    ActorBackgroundColor aqua
    ActorFontColor DeepSkyBlue
    ActorFontSize 17
    ActorFontName Aapex
}

lua -> c : c.command("LAUNCH", "snlua xxx")
activate c

c -> c : lcommand(L)
c -> c : skynet_command(context, "LAUNCH", "snlua xxx")
c -> c : cmd_launch(context, "snlua xxx")
c -> c : skynet_context_new("snlua", "xxx")

return id_to_hex
@enduml

PlantUML version 1.2020.10(Sun May 17 17:35:57 CST 2020)
(GPL source distribution)
Java Runtime: OpenJDK Runtime Environment
JVM: OpenJDK 64-Bit Server VM
Java Version: 11.0.7+10-post-Ubuntu-2ubuntu218.04
Operating System: Linux
Default Encoding: UTF-8
Language: en
Country: null
--></g></svg>